<?xml version="1.0" encoding="UTF-8"?>
<svg xmlns="http://www.w3.org/2000/svg" xmlns:xlink="http://www.w3.org/1999/xlink" width="595.275591pt" height="841.889764pt" viewBox="0 0 595.275591 841.889764" version="1.2">
<g id="surface1676788">
<rect x="0" y="0" width="595.275591" height="841.889764" style="fill:rgb(100%,100%,100%);fill-opacity:1;stroke:none;"/>
<path style="fill:none;stroke-width:28;stroke-linecap:round;stroke-linejoin:round;stroke:rgb(0%,0%,0%);stroke-opacity:1;stroke-miterlimit:10;" d="M 33450 31367.96875 L 53859.114583 31367.96875 L 53859.114583 37415.104167 L 33450 37415.104167 Z M 33450 31367.96875 " transform="matrix(0.015,0,0,0.015,0,0)"/>
<path style="fill:none;stroke-width:28;stroke-linecap:round;stroke-linejoin:round;stroke:rgb(0%,0%,0%);stroke-opacity:1;stroke-miterlimit:10;" d="M 1890.885417 1886.979167 L 54236.979167 1886.979167 L 54236.979167 37792.96875 L 1890.885417 37792.96875 Z M 1890.885417 1886.979167 " transform="matrix(0.015,0,0,0.015,0,0)"/>
<path style="fill:none;stroke-width:28;stroke-linecap:round;stroke-linejoin:round;stroke:rgb(0%,0%,0%);stroke-opacity:1;stroke-miterlimit:10;" d="M 2269.010417 2265.104167 L 53859.114583 2265.104167 L 53859.114583 37415.104167 L 2269.010417 37415.104167 Z M 2269.010417 2265.104167 " transform="matrix(0.015,0,0,0.015,0,0)"/>
<path style="fill:none;stroke-width:28;stroke-linecap:round;stroke-linejoin:round;stroke:rgb(0%,0%,0%);stroke-opacity:1;stroke-miterlimit:10;" d="M 11339.0625 2265.104167 L 11339.0625 1886.979167 " transform="matrix(0.015,0,0,0.015,0,0)"/>
<path style="fill:none;stroke-width:28;stroke-linecap:round;stroke-linejoin:round;stroke:rgb(0%,0%,0%);stroke-opacity:1;stroke-miterlimit:10;" d="M 20788.020833 2265.104167 L 20788.020833 1886.979167 " transform="matrix(0.015,0,0,0.015,0,0)"/>
<path style="fill:none;stroke-width:28;stroke-linecap:round;stroke-linejoin:round;stroke:rgb(0%,0%,0%);stroke-opacity:1;stroke-miterlimit:10;" d="M 30236.979167 2265.104167 L 30236.979167 1886.979167 " transform="matrix(0.015,0,0,0.015,0,0)"/>
<path style="fill:none;stroke-width:28;stroke-linecap:round;stroke-linejoin:round;stroke:rgb(0%,0%,0%);stroke-opacity:1;stroke-miterlimit:10;" d="M 39685.9375 2265.104167 L 39685.9375 1886.979167 " transform="matrix(0.015,0,0,0.015,0,0)"/>
<path style="fill:none;stroke-width:28;stroke-linecap:round;stroke-linejoin:round;stroke:rgb(0%,0%,0%);stroke-opacity:1;stroke-miterlimit:10;" d="M 6815.885417 2186.979167 L 6676.041667 2186.979167 " transform="matrix(0.015,0,0,0.015,0,0)"/>
<path style="fill:none;stroke-width:28;stroke-linecap:round;stroke-linejoin:round;stroke:rgb(0%,0%,0%);stroke-opacity:1;stroke-miterlimit:10;" d="M 6746.09375 2186.979167 L 6746.09375 1940.885417 L 6722.916667 1976.041667 L 6698.958333 1998.958333 L 6676.041667 2010.9375 " transform="matrix(0.015,0,0,0.015,0,0)"/>
<path style="fill:none;stroke-width:28;stroke-linecap:round;stroke-linejoin:round;stroke:rgb(0%,0%,0%);stroke-opacity:1;stroke-miterlimit:10;" d="M 16125 1964.0625 L 16135.9375 1953.125 L 16159.895833 1940.885417 L 16217.96875 1940.885417 L 16241.927083 1953.125 L 16253.125 1964.0625 L 16265.104167 1988.020833 L 16265.104167 2010.9375 L 16253.125 2046.09375 L 16113.020833 2186.979167 L 16265.104167 2186.979167 " transform="matrix(0.015,0,0,0.015,0,0)"/>
<path style="fill:none;stroke-width:28;stroke-linecap:round;stroke-linejoin:round;stroke:rgb(0%,0%,0%);stroke-opacity:1;stroke-miterlimit:10;" d="M 25561.979167 1940.885417 L 25714.0625 1940.885417 L 25632.03125 2034.895833 L 25666.927083 2034.895833 L 25690.885417 2046.09375 L 25702.083333 2058.072917 L 25714.0625 2080.989583 L 25714.0625 2140.104167 L 25702.083333 2163.020833 L 25690.885417 2175 L 25666.927083 2186.979167 L 25596.875 2186.979167 L 25573.958333 2175 L 25561.979167 2163.020833 " transform="matrix(0.015,0,0,0.015,0,0)"/>
<path style="fill:none;stroke-width:28;stroke-linecap:round;stroke-linejoin:round;stroke:rgb(0%,0%,0%);stroke-opacity:1;stroke-miterlimit:10;" d="M 35139.0625 2022.916667 L 35139.0625 2186.979167 " transform="matrix(0.015,0,0,0.015,0,0)"/>
<path style="fill:none;stroke-width:28;stroke-linecap:round;stroke-linejoin:round;stroke:rgb(0%,0%,0%);stroke-opacity:1;stroke-miterlimit:10;" d="M 35080.989583 1928.90625 L 35021.875 2104.947917 L 35173.958333 2104.947917 " transform="matrix(0.015,0,0,0.015,0,0)"/>
<path style="fill:none;stroke-width:28;stroke-linecap:round;stroke-linejoin:round;stroke:rgb(0%,0%,0%);stroke-opacity:1;stroke-miterlimit:10;" d="M 11339.0625 37415.104167 L 11339.0625 37792.96875 " transform="matrix(0.015,0,0,0.015,0,0)"/>
<path style="fill:none;stroke-width:28;stroke-linecap:round;stroke-linejoin:round;stroke:rgb(0%,0%,0%);stroke-opacity:1;stroke-miterlimit:10;" d="M 20788.020833 37415.104167 L 20788.020833 37792.96875 " transform="matrix(0.015,0,0,0.015,0,0)"/>
<path style="fill:none;stroke-width:28;stroke-linecap:round;stroke-linejoin:round;stroke:rgb(0%,0%,0%);stroke-opacity:1;stroke-miterlimit:10;" d="M 30236.979167 37415.104167 L 30236.979167 37792.96875 " transform="matrix(0.015,0,0,0.015,0,0)"/>
<path style="fill:none;stroke-width:28;stroke-linecap:round;stroke-linejoin:round;stroke:rgb(0%,0%,0%);stroke-opacity:1;stroke-miterlimit:10;" d="M 39685.9375 37415.104167 L 39685.9375 37792.96875 " transform="matrix(0.015,0,0,0.015,0,0)"/>
<path style="fill:none;stroke-width:28;stroke-linecap:round;stroke-linejoin:round;stroke:rgb(0%,0%,0%);stroke-opacity:1;stroke-miterlimit:10;" d="M 6815.885417 37715.885417 L 6676.041667 37715.885417 " transform="matrix(0.015,0,0,0.015,0,0)"/>
<path style="fill:none;stroke-width:28;stroke-linecap:round;stroke-linejoin:round;stroke:rgb(0%,0%,0%);stroke-opacity:1;stroke-miterlimit:10;" d="M 6746.09375 37715.885417 L 6746.09375 37470.052083 L 6722.916667 37504.947917 L 6698.958333 37528.125 L 6676.041667 37540.104167 " transform="matrix(0.015,0,0,0.015,0,0)"/>
<path style="fill:none;stroke-width:28;stroke-linecap:round;stroke-linejoin:round;stroke:rgb(0%,0%,0%);stroke-opacity:1;stroke-miterlimit:10;" d="M 16125 37492.96875 L 16135.9375 37482.03125 L 16159.895833 37470.052083 L 16217.96875 37470.052083 L 16241.927083 37482.03125 L 16253.125 37492.96875 L 16265.104167 37516.927083 L 16265.104167 37540.104167 L 16253.125 37575 L 16113.020833 37715.885417 L 16265.104167 37715.885417 " transform="matrix(0.015,0,0,0.015,0,0)"/>
<path style="fill:none;stroke-width:28;stroke-linecap:round;stroke-linejoin:round;stroke:rgb(0%,0%,0%);stroke-opacity:1;stroke-miterlimit:10;" d="M 25561.979167 37470.052083 L 25714.0625 37470.052083 L 25632.03125 37564.0625 L 25666.927083 37564.0625 L 25690.885417 37575 L 25702.083333 37586.979167 L 25714.0625 37609.895833 L 25714.0625 37669.010417 L 25702.083333 37691.927083 L 25690.885417 37703.90625 L 25666.927083 37715.885417 L 25596.875 37715.885417 L 25573.958333 37703.90625 L 25561.979167 37691.927083 " transform="matrix(0.015,0,0,0.015,0,0)"/>
<path style="fill:none;stroke-width:28;stroke-linecap:round;stroke-linejoin:round;stroke:rgb(0%,0%,0%);stroke-opacity:1;stroke-miterlimit:10;" d="M 35139.0625 37552.083333 L 35139.0625 37715.885417 " transform="matrix(0.015,0,0,0.015,0,0)"/>
<path style="fill:none;stroke-width:28;stroke-linecap:round;stroke-linejoin:round;stroke:rgb(0%,0%,0%);stroke-opacity:1;stroke-miterlimit:10;" d="M 35080.989583 37458.072917 L 35021.875 37634.114583 L 35173.958333 37634.114583 " transform="matrix(0.015,0,0,0.015,0,0)"/>
<path style="fill:none;stroke-width:28;stroke-linecap:round;stroke-linejoin:round;stroke:rgb(0%,0%,0%);stroke-opacity:1;stroke-miterlimit:10;" d="M 1890.885417 11334.895833 L 2269.010417 11334.895833 " transform="matrix(0.015,0,0,0.015,0,0)"/>
<path style="fill:none;stroke-width:28;stroke-linecap:round;stroke-linejoin:round;stroke:rgb(0%,0%,0%);stroke-opacity:1;stroke-miterlimit:10;" d="M 1890.885417 20784.114583 L 2269.010417 20784.114583 " transform="matrix(0.015,0,0,0.015,0,0)"/>
<path style="fill:none;stroke-width:28;stroke-linecap:round;stroke-linejoin:round;stroke:rgb(0%,0%,0%);stroke-opacity:1;stroke-miterlimit:10;" d="M 1890.885417 30233.072917 L 2269.010417 30233.072917 " transform="matrix(0.015,0,0,0.015,0,0)"/>
<path style="fill:none;stroke-width:28;stroke-linecap:round;stroke-linejoin:round;stroke:rgb(0%,0%,0%);stroke-opacity:1;stroke-miterlimit:10;" d="M 2021.09375 6652.083333 L 2138.020833 6652.083333 " transform="matrix(0.015,0,0,0.015,0,0)"/>
<path style="fill:none;stroke-width:28;stroke-linecap:round;stroke-linejoin:round;stroke:rgb(0%,0%,0%);stroke-opacity:1;stroke-miterlimit:10;" d="M 1997.916667 6721.875 L 2079.947917 6476.041667 L 2160.9375 6721.875 " transform="matrix(0.015,0,0,0.015,0,0)"/>
<path style="fill:none;stroke-width:28;stroke-linecap:round;stroke-linejoin:round;stroke:rgb(0%,0%,0%);stroke-opacity:1;stroke-miterlimit:10;" d="M 2096.875 16041.927083 L 2132.03125 16053.90625 L 2144.010417 16065.885417 L 2155.989583 16089.0625 L 2155.989583 16123.958333 L 2144.010417 16147.916667 L 2132.03125 16159.114583 L 2109.114583 16171.09375 L 2015.104167 16171.09375 L 2015.104167 15925 L 2096.875 15925 L 2120.052083 15936.979167 L 2132.03125 15948.958333 L 2144.010417 15971.875 L 2144.010417 15995.052083 L 2132.03125 16019.010417 L 2120.052083 16030.989583 L 2096.875 16041.927083 L 2015.104167 16041.927083 " transform="matrix(0.015,0,0,0.015,0,0)"/>
<path style="fill:none;stroke-width:28;stroke-linecap:round;stroke-linejoin:round;stroke:rgb(0%,0%,0%);stroke-opacity:1;stroke-miterlimit:10;" d="M 2155.989583 25596.09375 L 2144.010417 25608.072917 L 2109.114583 25620.052083 L 2084.895833 25620.052083 L 2050 25608.072917 L 2027.083333 25584.895833 L 2015.104167 25560.9375 L 2003.125 25514.0625 L 2003.125 25478.90625 L 2015.104167 25433.072917 L 2027.083333 25409.114583 L 2050 25385.9375 L 2084.895833 25373.958333 L 2109.114583 25373.958333 L 2144.010417 25385.9375 L 2155.989583 25396.875 " transform="matrix(0.015,0,0,0.015,0,0)"/>
<path style="fill:none;stroke-width:28;stroke-linecap:round;stroke-linejoin:round;stroke:rgb(0%,0%,0%);stroke-opacity:1;stroke-miterlimit:10;" d="M 2015.104167 35069.010417 L 2015.104167 34822.916667 L 2073.958333 34822.916667 L 2109.114583 34834.895833 L 2132.03125 34858.072917 L 2144.010417 34880.989583 L 2155.989583 34928.125 L 2155.989583 34963.020833 L 2144.010417 35009.895833 L 2132.03125 35033.072917 L 2109.114583 35057.03125 L 2073.958333 35069.010417 L 2015.104167 35069.010417 " transform="matrix(0.015,0,0,0.015,0,0)"/>
<path style="fill:none;stroke-width:28;stroke-linecap:round;stroke-linejoin:round;stroke:rgb(0%,0%,0%);stroke-opacity:1;stroke-miterlimit:10;" d="M 37878.125 36617.96875 L 37878.125 36334.114583 L 37946.09375 36334.114583 L 37985.9375 36347.916667 L 38013.020833 36375 L 38027.083333 36402.083333 L 38040.104167 36455.989583 L 38040.104167 36496.09375 L 38027.083333 36550 L 38013.020833 36577.083333 L 37985.9375 36603.90625 L 37946.09375 36617.96875 L 37878.125 36617.96875 " transform="matrix(0.015,0,0,0.015,0,0)"/>
<path style="fill:none;stroke-width:28;stroke-linecap:round;stroke-linejoin:round;stroke:rgb(0%,0%,0%);stroke-opacity:1;stroke-miterlimit:10;" d="M 38283.072917 36617.96875 L 38283.072917 36469.010417 L 38270.052083 36441.927083 L 38242.96875 36428.90625 L 38189.0625 36428.90625 L 38161.979167 36441.927083 " transform="matrix(0.015,0,0,0.015,0,0)"/>
<path style="fill:none;stroke-width:28;stroke-linecap:round;stroke-linejoin:round;stroke:rgb(0%,0%,0%);stroke-opacity:1;stroke-miterlimit:10;" d="M 38283.072917 36603.90625 L 38255.989583 36617.96875 L 38189.0625 36617.96875 L 38161.979167 36603.90625 L 38147.916667 36577.083333 L 38147.916667 36550 L 38161.979167 36522.916667 L 38189.0625 36509.895833 L 38255.989583 36509.895833 L 38283.072917 36496.09375 " transform="matrix(0.015,0,0,0.015,0,0)"/>
<path style="fill:none;stroke-width:28;stroke-linecap:round;stroke-linejoin:round;stroke:rgb(0%,0%,0%);stroke-opacity:1;stroke-miterlimit:10;" d="M 38378.125 36428.90625 L 38485.9375 36428.90625 " transform="matrix(0.015,0,0,0.015,0,0)"/>
<path style="fill:none;stroke-width:28;stroke-linecap:round;stroke-linejoin:round;stroke:rgb(0%,0%,0%);stroke-opacity:1;stroke-miterlimit:10;" d="M 38417.96875 36334.114583 L 38417.96875 36577.083333 L 38432.03125 36603.90625 L 38459.114583 36617.96875 L 38485.9375 36617.96875 " transform="matrix(0.015,0,0,0.015,0,0)"/>
<path style="fill:none;stroke-width:28;stroke-linecap:round;stroke-linejoin:round;stroke:rgb(0%,0%,0%);stroke-opacity:1;stroke-miterlimit:10;" d="M 38688.020833 36603.90625 L 38660.9375 36617.96875 L 38607.03125 36617.96875 L 38579.947917 36603.90625 L 38566.927083 36577.083333 L 38566.927083 36469.010417 L 38579.947917 36441.927083 L 38607.03125 36428.90625 L 38660.9375 36428.90625 L 38688.020833 36441.927083 L 38702.083333 36469.010417 L 38702.083333 36496.09375 L 38566.927083 36522.916667 " transform="matrix(0.015,0,0,0.015,0,0)"/>
<path style="fill:none;stroke-width:28;stroke-linecap:round;stroke-linejoin:round;stroke:rgb(0%,0%,0%);stroke-opacity:1;stroke-miterlimit:10;" d="M 38822.916667 36590.885417 L 38836.979167 36603.90625 L 38822.916667 36617.96875 L 38809.895833 36603.90625 L 38822.916667 36590.885417 L 38822.916667 36617.96875 " transform="matrix(0.015,0,0,0.015,0,0)"/>
<path style="fill:none;stroke-width:28;stroke-linecap:round;stroke-linejoin:round;stroke:rgb(0%,0%,0%);stroke-opacity:1;stroke-miterlimit:10;" d="M 38822.916667 36441.927083 L 38836.979167 36455.989583 L 38822.916667 36469.010417 L 38809.895833 36455.989583 L 38822.916667 36441.927083 L 38822.916667 36469.010417 " transform="matrix(0.015,0,0,0.015,0,0)"/>
<path style="fill:none;stroke-width:28;stroke-linecap:round;stroke-linejoin:round;stroke:rgb(0%,0%,0%);stroke-opacity:1;stroke-miterlimit:10;" d="M 33450 36753.90625 L 53859.114583 36753.90625 " transform="matrix(0.015,0,0,0.015,0,0)"/>
<path style="fill:none;stroke-width:28;stroke-linecap:round;stroke-linejoin:round;stroke:rgb(0%,0%,0%);stroke-opacity:1;stroke-miterlimit:10;" d="M 33721.09375 37146.875 L 33721.09375 36863.020833 " transform="matrix(0.015,0,0,0.015,0,0)"/>
<path style="fill:none;stroke-width:28;stroke-linecap:round;stroke-linejoin:round;stroke:rgb(0%,0%,0%);stroke-opacity:1;stroke-miterlimit:10;" d="M 33883.072917 37146.875 L 33760.9375 36984.895833 " transform="matrix(0.015,0,0,0.015,0,0)"/>
<path style="fill:none;stroke-width:28;stroke-linecap:round;stroke-linejoin:round;stroke:rgb(0%,0%,0%);stroke-opacity:1;stroke-miterlimit:10;" d="M 33883.072917 36863.020833 L 33721.09375 37025 " transform="matrix(0.015,0,0,0.015,0,0)"/>
<path style="fill:none;stroke-width:28;stroke-linecap:round;stroke-linejoin:round;stroke:rgb(0%,0%,0%);stroke-opacity:1;stroke-miterlimit:10;" d="M 34003.90625 37146.875 L 34003.90625 36958.072917 " transform="matrix(0.015,0,0,0.015,0,0)"/>
<path style="fill:none;stroke-width:28;stroke-linecap:round;stroke-linejoin:round;stroke:rgb(0%,0%,0%);stroke-opacity:1;stroke-miterlimit:10;" d="M 34003.90625 36863.020833 L 33990.885417 36877.083333 L 34003.90625 36890.104167 L 34017.96875 36877.083333 L 34003.90625 36863.020833 L 34003.90625 36890.104167 " transform="matrix(0.015,0,0,0.015,0,0)"/>
<path style="fill:none;stroke-width:28;stroke-linecap:round;stroke-linejoin:round;stroke:rgb(0%,0%,0%);stroke-opacity:1;stroke-miterlimit:10;" d="M 34301.041667 37120.052083 L 34288.020833 37133.072917 L 34246.875 37146.875 L 34220.052083 37146.875 L 34179.947917 37133.072917 L 34153.125 37105.989583 L 34139.0625 37078.90625 L 34126.041667 37025 L 34126.041667 36984.895833 L 34139.0625 36930.989583 L 34153.125 36903.90625 L 34179.947917 36877.083333 L 34220.052083 36863.020833 L 34246.875 36863.020833 L 34288.020833 36877.083333 L 34301.041667 36890.104167 " transform="matrix(0.015,0,0,0.015,0,0)"/>
<path style="fill:none;stroke-width:28;stroke-linecap:round;stroke-linejoin:round;stroke:rgb(0%,0%,0%);stroke-opacity:1;stroke-miterlimit:10;" d="M 34544.010417 37146.875 L 34544.010417 36997.916667 L 34530.989583 36971.09375 L 34503.90625 36958.072917 L 34450 36958.072917 L 34422.916667 36971.09375 " transform="matrix(0.015,0,0,0.015,0,0)"/>
<path style="fill:none;stroke-width:28;stroke-linecap:round;stroke-linejoin:round;stroke:rgb(0%,0%,0%);stroke-opacity:1;stroke-miterlimit:10;" d="M 34544.010417 37133.072917 L 34516.927083 37146.875 L 34450 37146.875 L 34422.916667 37133.072917 L 34409.114583 37105.989583 L 34409.114583 37078.90625 L 34422.916667 37052.083333 L 34450 37039.0625 L 34516.927083 37039.0625 L 34544.010417 37025 " transform="matrix(0.015,0,0,0.015,0,0)"/>
<path style="fill:none;stroke-width:28;stroke-linecap:round;stroke-linejoin:round;stroke:rgb(0%,0%,0%);stroke-opacity:1;stroke-miterlimit:10;" d="M 34801.041667 37146.875 L 34801.041667 36863.020833 " transform="matrix(0.015,0,0,0.015,0,0)"/>
<path style="fill:none;stroke-width:28;stroke-linecap:round;stroke-linejoin:round;stroke:rgb(0%,0%,0%);stroke-opacity:1;stroke-miterlimit:10;" d="M 34801.041667 37133.072917 L 34773.958333 37146.875 L 34720.052083 37146.875 L 34692.96875 37133.072917 L 34678.90625 37120.052083 L 34665.885417 37092.96875 L 34665.885417 37011.979167 L 34678.90625 36984.895833 L 34692.96875 36971.09375 L 34720.052083 36958.072917 L 34773.958333 36958.072917 L 34801.041667 36971.09375 " transform="matrix(0.015,0,0,0.015,0,0)"/>
<path style="fill:none;stroke-width:28;stroke-linecap:round;stroke-linejoin:round;stroke:rgb(0%,0%,0%);stroke-opacity:1;stroke-miterlimit:10;" d="M 35151.041667 36997.916667 L 35246.09375 36997.916667 " transform="matrix(0.015,0,0,0.015,0,0)"/>
<path style="fill:none;stroke-width:28;stroke-linecap:round;stroke-linejoin:round;stroke:rgb(0%,0%,0%);stroke-opacity:1;stroke-miterlimit:10;" d="M 35285.9375 37146.875 L 35151.041667 37146.875 L 35151.041667 36863.020833 L 35285.9375 36863.020833 " transform="matrix(0.015,0,0,0.015,0,0)"/>
<path style="fill:none;stroke-width:28;stroke-linecap:round;stroke-linejoin:round;stroke:rgb(0%,0%,0%);stroke-opacity:1;stroke-miterlimit:10;" d="M 35408.072917 37120.052083 L 35421.09375 37133.072917 L 35408.072917 37146.875 L 35394.010417 37133.072917 L 35408.072917 37120.052083 L 35408.072917 37146.875 " transform="matrix(0.015,0,0,0.015,0,0)"/>
<path style="fill:none;stroke-width:28;stroke-linecap:round;stroke-linejoin:round;stroke:rgb(0%,0%,0%);stroke-opacity:1;stroke-miterlimit:10;" d="M 35542.96875 37146.875 L 35542.96875 36863.020833 L 35609.895833 36863.020833 L 35651.041667 36877.083333 L 35678.125 36903.90625 L 35690.885417 36930.989583 L 35704.947917 36984.895833 L 35704.947917 37025 L 35690.885417 37078.90625 L 35678.125 37105.989583 L 35651.041667 37133.072917 L 35609.895833 37146.875 L 35542.96875 37146.875 " transform="matrix(0.015,0,0,0.015,0,0)"/>
<path style="fill:none;stroke-width:28;stroke-linecap:round;stroke-linejoin:round;stroke:rgb(0%,0%,0%);stroke-opacity:1;stroke-miterlimit:10;" d="M 35826.041667 37120.052083 L 35840.104167 37133.072917 L 35826.041667 37146.875 L 35813.020833 37133.072917 L 35826.041667 37120.052083 L 35826.041667 37146.875 " transform="matrix(0.015,0,0,0.015,0,0)"/>
<path style="fill:none;stroke-width:28;stroke-linecap:round;stroke-linejoin:round;stroke:rgb(0%,0%,0%);stroke-opacity:1;stroke-miterlimit:10;" d="M 35947.916667 37065.885417 L 36083.072917 37065.885417 " transform="matrix(0.015,0,0,0.015,0,0)"/>
<path style="fill:none;stroke-width:28;stroke-linecap:round;stroke-linejoin:round;stroke:rgb(0%,0%,0%);stroke-opacity:1;stroke-miterlimit:10;" d="M 35921.09375 37146.875 L 36015.104167 36863.020833 L 36109.895833 37146.875 " transform="matrix(0.015,0,0,0.015,0,0)"/>
<path style="fill:none;stroke-width:28;stroke-linecap:round;stroke-linejoin:round;stroke:rgb(0%,0%,0%);stroke-opacity:1;stroke-miterlimit:10;" d="M 36203.90625 37120.052083 L 36217.96875 37133.072917 L 36203.90625 37146.875 L 36190.885417 37133.072917 L 36203.90625 37120.052083 L 36203.90625 37146.875 " transform="matrix(0.015,0,0,0.015,0,0)"/>
<path style="fill:none;stroke-width:28;stroke-linecap:round;stroke-linejoin:round;stroke:rgb(0%,0%,0%);stroke-opacity:1;stroke-miterlimit:10;" d="M 36771.09375 37146.875 L 36771.09375 36863.020833 " transform="matrix(0.015,0,0,0.015,0,0)"/>
<path style="fill:none;stroke-width:28;stroke-linecap:round;stroke-linejoin:round;stroke:rgb(0%,0%,0%);stroke-opacity:1;stroke-miterlimit:10;" d="M 36797.916667 37039.0625 L 36878.90625 37146.875 " transform="matrix(0.015,0,0,0.015,0,0)"/>
<path style="fill:none;stroke-width:28;stroke-linecap:round;stroke-linejoin:round;stroke:rgb(0%,0%,0%);stroke-opacity:1;stroke-miterlimit:10;" d="M 36878.90625 36958.072917 L 36771.09375 37065.885417 " transform="matrix(0.015,0,0,0.015,0,0)"/>
<path style="fill:none;stroke-width:28;stroke-linecap:round;stroke-linejoin:round;stroke:rgb(0%,0%,0%);stroke-opacity:1;stroke-miterlimit:10;" d="M 37001.041667 37146.875 L 37001.041667 36958.072917 " transform="matrix(0.015,0,0,0.015,0,0)"/>
<path style="fill:none;stroke-width:28;stroke-linecap:round;stroke-linejoin:round;stroke:rgb(0%,0%,0%);stroke-opacity:1;stroke-miterlimit:10;" d="M 37001.041667 36863.020833 L 36986.979167 36877.083333 L 37001.041667 36890.104167 L 37014.0625 36877.083333 L 37001.041667 36863.020833 L 37001.041667 36890.104167 " transform="matrix(0.015,0,0,0.015,0,0)"/>
<path style="fill:none;stroke-width:28;stroke-linecap:round;stroke-linejoin:round;stroke:rgb(0%,0%,0%);stroke-opacity:1;stroke-miterlimit:10;" d="M 37257.03125 37133.072917 L 37229.947917 37146.875 L 37176.041667 37146.875 L 37148.958333 37133.072917 L 37135.9375 37120.052083 L 37121.875 37092.96875 L 37121.875 37011.979167 L 37135.9375 36984.895833 L 37148.958333 36971.09375 L 37176.041667 36958.072917 L 37229.947917 36958.072917 L 37257.03125 36971.09375 " transform="matrix(0.015,0,0,0.015,0,0)"/>
<path style="fill:none;stroke-width:28;stroke-linecap:round;stroke-linejoin:round;stroke:rgb(0%,0%,0%);stroke-opacity:1;stroke-miterlimit:10;" d="M 37500 37146.875 L 37500 36997.916667 L 37486.979167 36971.09375 L 37459.895833 36958.072917 L 37405.989583 36958.072917 L 37378.90625 36971.09375 " transform="matrix(0.015,0,0,0.015,0,0)"/>
<path style="fill:none;stroke-width:28;stroke-linecap:round;stroke-linejoin:round;stroke:rgb(0%,0%,0%);stroke-opacity:1;stroke-miterlimit:10;" d="M 37500 37133.072917 L 37472.916667 37146.875 L 37405.989583 37146.875 L 37378.90625 37133.072917 L 37365.104167 37105.989583 L 37365.104167 37078.90625 L 37378.90625 37052.083333 L 37405.989583 37039.0625 L 37472.916667 37039.0625 L 37500 37025 " transform="matrix(0.015,0,0,0.015,0,0)"/>
<path style="fill:none;stroke-width:28;stroke-linecap:round;stroke-linejoin:round;stroke:rgb(0%,0%,0%);stroke-opacity:1;stroke-miterlimit:10;" d="M 37757.03125 37146.875 L 37757.03125 36863.020833 " transform="matrix(0.015,0,0,0.015,0,0)"/>
<path style="fill:none;stroke-width:28;stroke-linecap:round;stroke-linejoin:round;stroke:rgb(0%,0%,0%);stroke-opacity:1;stroke-miterlimit:10;" d="M 37757.03125 37133.072917 L 37729.947917 37146.875 L 37676.041667 37146.875 L 37648.958333 37133.072917 L 37634.895833 37120.052083 L 37621.875 37092.96875 L 37621.875 37011.979167 L 37634.895833 36984.895833 L 37648.958333 36971.09375 L 37676.041667 36958.072917 L 37729.947917 36958.072917 L 37757.03125 36971.09375 " transform="matrix(0.015,0,0,0.015,0,0)"/>
<path style="fill:none;stroke-width:28;stroke-linecap:round;stroke-linejoin:round;stroke:rgb(0%,0%,0%);stroke-opacity:1;stroke-miterlimit:10;" d="M 38242.96875 36863.020833 L 38108.072917 36863.020833 L 38094.010417 36997.916667 L 38108.072917 36984.895833 L 38134.895833 36971.09375 L 38202.083333 36971.09375 L 38228.90625 36984.895833 L 38242.96875 36997.916667 L 38255.989583 37025 L 38255.989583 37092.96875 L 38242.96875 37120.052083 L 38228.90625 37133.072917 L 38202.083333 37146.875 L 38134.895833 37146.875 L 38108.072917 37133.072917 L 38094.010417 37120.052083 " transform="matrix(0.015,0,0,0.015,0,0)"/>
<path style="fill:none;stroke-width:28;stroke-linecap:round;stroke-linejoin:round;stroke:rgb(0%,0%,0%);stroke-opacity:1;stroke-miterlimit:10;" d="M 38378.125 37120.052083 L 38390.885417 37133.072917 L 38378.125 37146.875 L 38364.0625 37133.072917 L 38378.125 37120.052083 L 38378.125 37146.875 " transform="matrix(0.015,0,0,0.015,0,0)"/>
<path style="fill:none;stroke-width:28;stroke-linecap:round;stroke-linejoin:round;stroke:rgb(0%,0%,0%);stroke-opacity:1;stroke-miterlimit:10;" d="M 38660.9375 37146.875 L 38498.958333 37146.875 " transform="matrix(0.015,0,0,0.015,0,0)"/>
<path style="fill:none;stroke-width:28;stroke-linecap:round;stroke-linejoin:round;stroke:rgb(0%,0%,0%);stroke-opacity:1;stroke-miterlimit:10;" d="M 38579.947917 37146.875 L 38579.947917 36863.020833 L 38553.125 36903.90625 L 38526.041667 36930.989583 L 38498.958333 36944.010417 " transform="matrix(0.015,0,0,0.015,0,0)"/>
<path style="fill:none;stroke-width:28;stroke-linecap:round;stroke-linejoin:round;stroke:rgb(0%,0%,0%);stroke-opacity:1;stroke-miterlimit:10;" d="M 38783.072917 37120.052083 L 38796.09375 37133.072917 L 38783.072917 37146.875 L 38769.010417 37133.072917 L 38783.072917 37120.052083 L 38783.072917 37146.875 " transform="matrix(0.015,0,0,0.015,0,0)"/>
<path style="fill:none;stroke-width:28;stroke-linecap:round;stroke-linejoin:round;stroke:rgb(0%,0%,0%);stroke-opacity:1;stroke-miterlimit:10;" d="M 38930.989583 37146.875 L 38984.895833 37146.875 L 39011.979167 37133.072917 L 39026.041667 37120.052083 L 39053.125 37078.90625 L 39065.885417 37025 L 39065.885417 36916.927083 L 39053.125 36890.104167 L 39039.0625 36877.083333 L 39011.979167 36863.020833 L 38958.072917 36863.020833 L 38930.989583 36877.083333 L 38917.96875 36890.104167 L 38903.90625 36916.927083 L 38903.90625 36984.895833 L 38917.96875 37011.979167 L 38930.989583 37025 L 38958.072917 37039.0625 L 39011.979167 37039.0625 L 39039.0625 37025 L 39053.125 37011.979167 L 39065.885417 36984.895833 " transform="matrix(0.015,0,0,0.015,0,0)"/>
<path style="fill:none;stroke-width:28;stroke-linecap:round;stroke-linejoin:round;stroke:rgb(0%,0%,0%);stroke-opacity:1;stroke-miterlimit:10;" d="M 33450 36186.979167 L 53859.114583 36186.979167 " transform="matrix(0.015,0,0,0.015,0,0)"/>
<path style="fill:none;stroke-width:28;stroke-linecap:round;stroke-linejoin:round;stroke:rgb(0%,0%,0%);stroke-opacity:1;stroke-miterlimit:10;" d="M 33707.03125 36603.90625 L 33747.916667 36617.96875 L 33815.104167 36617.96875 L 33841.927083 36603.90625 L 33855.989583 36590.885417 L 33869.010417 36564.0625 L 33869.010417 36536.979167 L 33855.989583 36509.895833 L 33841.927083 36496.09375 L 33815.104167 36483.072917 L 33760.9375 36469.010417 L 33734.114583 36455.989583 L 33721.09375 36441.927083 L 33707.03125 36415.104167 L 33707.03125 36388.020833 L 33721.09375 36360.9375 L 33734.114583 36347.916667 L 33760.9375 36334.114583 L 33828.90625 36334.114583 L 33869.010417 36347.916667 " transform="matrix(0.015,0,0,0.015,0,0)"/>
<path style="fill:none;stroke-width:28;stroke-linecap:round;stroke-linejoin:round;stroke:rgb(0%,0%,0%);stroke-opacity:1;stroke-miterlimit:10;" d="M 33990.885417 36617.96875 L 33990.885417 36428.90625 " transform="matrix(0.015,0,0,0.015,0,0)"/>
<path style="fill:none;stroke-width:28;stroke-linecap:round;stroke-linejoin:round;stroke:rgb(0%,0%,0%);stroke-opacity:1;stroke-miterlimit:10;" d="M 33990.885417 36334.114583 L 33977.083333 36347.916667 L 33990.885417 36360.9375 L 34003.90625 36347.916667 L 33990.885417 36334.114583 L 33990.885417 36360.9375 " transform="matrix(0.015,0,0,0.015,0,0)"/>
<path style="fill:none;stroke-width:28;stroke-linecap:round;stroke-linejoin:round;stroke:rgb(0%,0%,0%);stroke-opacity:1;stroke-miterlimit:10;" d="M 34098.958333 36428.90625 L 34246.875 36428.90625 L 34098.958333 36617.96875 L 34246.875 36617.96875 " transform="matrix(0.015,0,0,0.015,0,0)"/>
<path style="fill:none;stroke-width:28;stroke-linecap:round;stroke-linejoin:round;stroke:rgb(0%,0%,0%);stroke-opacity:1;stroke-miterlimit:10;" d="M 34463.020833 36603.90625 L 34435.9375 36617.96875 L 34382.03125 36617.96875 L 34354.947917 36603.90625 L 34341.927083 36577.083333 L 34341.927083 36469.010417 L 34354.947917 36441.927083 L 34382.03125 36428.90625 L 34435.9375 36428.90625 L 34463.020833 36441.927083 L 34477.083333 36469.010417 L 34477.083333 36496.09375 L 34341.927083 36522.916667 " transform="matrix(0.015,0,0,0.015,0,0)"/>
<path style="fill:none;stroke-width:28;stroke-linecap:round;stroke-linejoin:round;stroke:rgb(0%,0%,0%);stroke-opacity:1;stroke-miterlimit:10;" d="M 34597.916667 36590.885417 L 34611.979167 36603.90625 L 34597.916667 36617.96875 L 34584.895833 36603.90625 L 34597.916667 36590.885417 L 34597.916667 36617.96875 " transform="matrix(0.015,0,0,0.015,0,0)"/>
<path style="fill:none;stroke-width:28;stroke-linecap:round;stroke-linejoin:round;stroke:rgb(0%,0%,0%);stroke-opacity:1;stroke-miterlimit:10;" d="M 34597.916667 36441.927083 L 34611.979167 36455.989583 L 34597.916667 36469.010417 L 34584.895833 36455.989583 L 34597.916667 36441.927083 L 34597.916667 36469.010417 " transform="matrix(0.015,0,0,0.015,0,0)"/>
<path style="fill:none;stroke-width:28;stroke-linecap:round;stroke-linejoin:round;stroke:rgb(0%,0%,0%);stroke-opacity:1;stroke-miterlimit:10;" d="M 34935.9375 36536.979167 L 35071.09375 36536.979167 " transform="matrix(0.015,0,0,0.015,0,0)"/>
<path style="fill:none;stroke-width:28;stroke-linecap:round;stroke-linejoin:round;stroke:rgb(0%,0%,0%);stroke-opacity:1;stroke-miterlimit:10;" d="M 34909.114583 36617.96875 L 35003.125 36334.114583 L 35097.916667 36617.96875 " transform="matrix(0.015,0,0,0.015,0,0)"/>
<path style="fill:none;stroke-width:28;stroke-linecap:round;stroke-linejoin:round;stroke:rgb(0%,0%,0%);stroke-opacity:1;stroke-miterlimit:10;" d="M 35313.020833 36428.90625 L 35313.020833 36617.96875 " transform="matrix(0.015,0,0,0.015,0,0)"/>
<path style="fill:none;stroke-width:28;stroke-linecap:round;stroke-linejoin:round;stroke:rgb(0%,0%,0%);stroke-opacity:1;stroke-miterlimit:10;" d="M 35246.09375 36321.09375 L 35178.125 36522.916667 L 35353.90625 36522.916667 " transform="matrix(0.015,0,0,0.015,0,0)"/>
<path style="fill:none;stroke-width:28;stroke-linecap:round;stroke-linejoin:round;stroke:rgb(0%,0%,0%);stroke-opacity:1;stroke-miterlimit:10;" d="M 33450 35430.989583 L 53859.114583 35430.989583 " transform="matrix(0.015,0,0,0.015,0,0)"/>
<path style="fill:none;stroke-width:98;stroke-linecap:round;stroke-linejoin:round;stroke:rgb(0%,0%,0%);stroke-opacity:1;stroke-miterlimit:10;" d="M 33773.958333 35564.0625 L 33990.104167 35564.0625 " transform="matrix(0.015,0,0,0.015,0,0)"/>
<path style="fill:none;stroke-width:98;stroke-linecap:round;stroke-linejoin:round;stroke:rgb(0%,0%,0%);stroke-opacity:1;stroke-miterlimit:10;" d="M 33834.114583 35941.927083 L 33882.03125 35564.0625 " transform="matrix(0.015,0,0,0.015,0,0)"/>
<path style="fill:none;stroke-width:98;stroke-linecap:round;stroke-linejoin:round;stroke:rgb(0%,0%,0%);stroke-opacity:1;stroke-miterlimit:10;" d="M 34067.96875 35941.927083 L 34100 35690.104167 " transform="matrix(0.015,0,0,0.015,0,0)"/>
<path style="fill:none;stroke-width:98;stroke-linecap:round;stroke-linejoin:round;stroke:rgb(0%,0%,0%);stroke-opacity:1;stroke-miterlimit:10;" d="M 34115.885417 35564.0625 L 34095.052083 35582.03125 L 34110.9375 35600 L 34130.989583 35582.03125 L 34115.885417 35564.0625 L 34110.9375 35600 " transform="matrix(0.015,0,0,0.015,0,0)"/>
<path style="fill:none;stroke-width:98;stroke-linecap:round;stroke-linejoin:round;stroke:rgb(0%,0%,0%);stroke-opacity:1;stroke-miterlimit:10;" d="M 34226.041667 35690.104167 L 34370.052083 35690.104167 " transform="matrix(0.015,0,0,0.015,0,0)"/>
<path style="fill:none;stroke-width:98;stroke-linecap:round;stroke-linejoin:round;stroke:rgb(0%,0%,0%);stroke-opacity:1;stroke-miterlimit:10;" d="M 34296.09375 35564.0625 L 34254.947917 35888.020833 L 34269.010417 35923.958333 L 34302.083333 35941.927083 L 34338.020833 35941.927083 " transform="matrix(0.015,0,0,0.015,0,0)"/>
<path style="fill:none;stroke-width:98;stroke-linecap:round;stroke-linejoin:round;stroke:rgb(0%,0%,0%);stroke-opacity:1;stroke-miterlimit:10;" d="M 34517.96875 35941.927083 L 34484.895833 35923.958333 L 34471.09375 35888.020833 L 34511.979167 35564.0625 " transform="matrix(0.015,0,0,0.015,0,0)"/>
<path style="fill:none;stroke-width:98;stroke-linecap:round;stroke-linejoin:round;stroke:rgb(0%,0%,0%);stroke-opacity:1;stroke-miterlimit:10;" d="M 34809.114583 35923.958333 L 34770.052083 35941.927083 L 34697.916667 35941.927083 L 34665.104167 35923.958333 L 34651.041667 35888.020833 L 34669.010417 35744.010417 L 34691.927083 35708.072917 L 34729.947917 35690.104167 L 34802.083333 35690.104167 L 34835.9375 35708.072917 L 34848.958333 35744.010417 L 34845.052083 35779.947917 L 34659.895833 35815.885417 " transform="matrix(0.015,0,0,0.015,0,0)"/>
<path style="fill:none;stroke-width:98;stroke-linecap:round;stroke-linejoin:round;stroke:rgb(0%,0%,0%);stroke-opacity:1;stroke-miterlimit:10;" d="M 34990.885417 35905.989583 L 35005.989583 35923.958333 L 34985.9375 35941.927083 L 34970.052083 35923.958333 L 34990.885417 35905.989583 L 34985.9375 35941.927083 " transform="matrix(0.015,0,0,0.015,0,0)"/>
<path style="fill:none;stroke-width:98;stroke-linecap:round;stroke-linejoin:round;stroke:rgb(0%,0%,0%);stroke-opacity:1;stroke-miterlimit:10;" d="M 35015.104167 35708.072917 L 35030.989583 35726.041667 L 35010.9375 35744.010417 L 34995.052083 35726.041667 L 35015.104167 35708.072917 L 35010.9375 35744.010417 " transform="matrix(0.015,0,0,0.015,0,0)"/>
<path style="fill:none;stroke-width:28;stroke-linecap:round;stroke-linejoin:round;stroke:rgb(0%,0%,0%);stroke-opacity:1;stroke-miterlimit:10;" d="M 33815.104167 35071.09375 L 33721.09375 35071.09375 " transform="matrix(0.015,0,0,0.015,0,0)"/>
<path style="fill:none;stroke-width:28;stroke-linecap:round;stroke-linejoin:round;stroke:rgb(0%,0%,0%);stroke-opacity:1;stroke-miterlimit:10;" d="M 33721.09375 35219.010417 L 33721.09375 34935.9375 L 33855.989583 34935.9375 " transform="matrix(0.015,0,0,0.015,0,0)"/>
<path style="fill:none;stroke-width:28;stroke-linecap:round;stroke-linejoin:round;stroke:rgb(0%,0%,0%);stroke-opacity:1;stroke-miterlimit:10;" d="M 33964.0625 35219.010417 L 33964.0625 35029.947917 " transform="matrix(0.015,0,0,0.015,0,0)"/>
<path style="fill:none;stroke-width:28;stroke-linecap:round;stroke-linejoin:round;stroke:rgb(0%,0%,0%);stroke-opacity:1;stroke-miterlimit:10;" d="M 33964.0625 34935.9375 L 33950 34948.958333 L 33964.0625 34963.020833 L 33977.083333 34948.958333 L 33964.0625 34935.9375 L 33964.0625 34963.020833 " transform="matrix(0.015,0,0,0.015,0,0)"/>
<path style="fill:none;stroke-width:28;stroke-linecap:round;stroke-linejoin:round;stroke:rgb(0%,0%,0%);stroke-opacity:1;stroke-miterlimit:10;" d="M 34139.0625 35219.010417 L 34111.979167 35205.989583 L 34098.958333 35178.90625 L 34098.958333 34935.9375 " transform="matrix(0.015,0,0,0.015,0,0)"/>
<path style="fill:none;stroke-width:28;stroke-linecap:round;stroke-linejoin:round;stroke:rgb(0%,0%,0%);stroke-opacity:1;stroke-miterlimit:10;" d="M 34354.947917 35205.989583 L 34328.125 35219.010417 L 34273.958333 35219.010417 L 34246.875 35205.989583 L 34234.114583 35178.90625 L 34234.114583 35071.09375 L 34246.875 35044.010417 L 34273.958333 35029.947917 L 34328.125 35029.947917 L 34354.947917 35044.010417 L 34369.010417 35071.09375 L 34369.010417 35097.916667 L 34234.114583 35125 " transform="matrix(0.015,0,0,0.015,0,0)"/>
<path style="fill:none;stroke-width:28;stroke-linecap:round;stroke-linejoin:round;stroke:rgb(0%,0%,0%);stroke-opacity:1;stroke-miterlimit:10;" d="M 34490.104167 35191.927083 L 34503.90625 35205.989583 L 34490.104167 35219.010417 L 34477.083333 35205.989583 L 34490.104167 35191.927083 L 34490.104167 35219.010417 " transform="matrix(0.015,0,0,0.015,0,0)"/>
<path style="fill:none;stroke-width:28;stroke-linecap:round;stroke-linejoin:round;stroke:rgb(0%,0%,0%);stroke-opacity:1;stroke-miterlimit:10;" d="M 34490.104167 35044.010417 L 34503.90625 35057.03125 L 34490.104167 35071.09375 L 34477.083333 35057.03125 L 34490.104167 35044.010417 L 34490.104167 35071.09375 " transform="matrix(0.015,0,0,0.015,0,0)"/>
<path style="fill:none;stroke-width:28;stroke-linecap:round;stroke-linejoin:round;stroke:rgb(0%,0%,0%);stroke-opacity:1;stroke-miterlimit:10;" d="M 34840.885417 35219.010417 L 34840.885417 34935.9375 " transform="matrix(0.015,0,0,0.015,0,0)"/>
<path style="fill:none;stroke-width:28;stroke-linecap:round;stroke-linejoin:round;stroke:rgb(0%,0%,0%);stroke-opacity:1;stroke-miterlimit:10;" d="M 34963.020833 35219.010417 L 34963.020833 35071.09375 L 34948.958333 35044.010417 L 34921.875 35029.947917 L 34882.03125 35029.947917 L 34854.947917 35044.010417 L 34840.885417 35057.03125 " transform="matrix(0.015,0,0,0.015,0,0)"/>
<path style="fill:none;stroke-width:28;stroke-linecap:round;stroke-linejoin:round;stroke:rgb(0%,0%,0%);stroke-opacity:1;stroke-miterlimit:10;" d="M 35071.09375 35029.947917 L 35125 35219.010417 L 35178.125 35084.114583 L 35232.03125 35219.010417 L 35285.9375 35029.947917 " transform="matrix(0.015,0,0,0.015,0,0)"/>
<path style="fill:none;stroke-width:28;stroke-linecap:round;stroke-linejoin:round;stroke:rgb(0%,0%,0%);stroke-opacity:1;stroke-miterlimit:10;" d="M 35394.010417 35110.9375 L 35609.895833 35110.9375 " transform="matrix(0.015,0,0,0.015,0,0)"/>
<path style="fill:none;stroke-width:28;stroke-linecap:round;stroke-linejoin:round;stroke:rgb(0%,0%,0%);stroke-opacity:1;stroke-miterlimit:10;" d="M 35745.052083 35219.010417 L 35745.052083 35029.947917 " transform="matrix(0.015,0,0,0.015,0,0)"/>
<path style="fill:none;stroke-width:28;stroke-linecap:round;stroke-linejoin:round;stroke:rgb(0%,0%,0%);stroke-opacity:1;stroke-miterlimit:10;" d="M 35745.052083 35057.03125 L 35759.114583 35044.010417 L 35785.9375 35029.947917 L 35826.041667 35029.947917 L 35853.125 35044.010417 L 35866.927083 35071.09375 L 35866.927083 35219.010417 " transform="matrix(0.015,0,0,0.015,0,0)"/>
<path style="fill:none;stroke-width:28;stroke-linecap:round;stroke-linejoin:round;stroke:rgb(0%,0%,0%);stroke-opacity:1;stroke-miterlimit:10;" d="M 35866.927083 35071.09375 L 35879.947917 35044.010417 L 35907.03125 35029.947917 L 35947.916667 35029.947917 L 35975 35044.010417 L 35988.020833 35071.09375 L 35988.020833 35219.010417 " transform="matrix(0.015,0,0,0.015,0,0)"/>
<path style="fill:none;stroke-width:28;stroke-linecap:round;stroke-linejoin:round;stroke:rgb(0%,0%,0%);stroke-opacity:1;stroke-miterlimit:10;" d="M 36122.916667 35219.010417 L 36122.916667 35029.947917 " transform="matrix(0.015,0,0,0.015,0,0)"/>
<path style="fill:none;stroke-width:28;stroke-linecap:round;stroke-linejoin:round;stroke:rgb(0%,0%,0%);stroke-opacity:1;stroke-miterlimit:10;" d="M 36122.916667 34935.9375 L 36109.895833 34948.958333 L 36122.916667 34963.020833 L 36136.979167 34948.958333 L 36122.916667 34935.9375 L 36122.916667 34963.020833 " transform="matrix(0.015,0,0,0.015,0,0)"/>
<path style="fill:none;stroke-width:28;stroke-linecap:round;stroke-linejoin:round;stroke:rgb(0%,0%,0%);stroke-opacity:1;stroke-miterlimit:10;" d="M 36379.947917 35205.989583 L 36353.125 35219.010417 L 36298.958333 35219.010417 L 36271.875 35205.989583 L 36258.072917 35191.927083 L 36245.052083 35165.104167 L 36245.052083 35084.114583 L 36258.072917 35057.03125 L 36271.875 35044.010417 L 36298.958333 35029.947917 L 36353.125 35029.947917 L 36379.947917 35044.010417 " transform="matrix(0.015,0,0,0.015,0,0)"/>
<path style="fill:none;stroke-width:28;stroke-linecap:round;stroke-linejoin:round;stroke:rgb(0%,0%,0%);stroke-opacity:1;stroke-miterlimit:10;" d="M 36501.041667 35110.9375 L 36716.927083 35110.9375 " transform="matrix(0.015,0,0,0.015,0,0)"/>
<path style="fill:none;stroke-width:28;stroke-linecap:round;stroke-linejoin:round;stroke:rgb(0%,0%,0%);stroke-opacity:1;stroke-miterlimit:10;" d="M 36852.083333 35029.947917 L 36852.083333 35314.0625 " transform="matrix(0.015,0,0,0.015,0,0)"/>
<path style="fill:none;stroke-width:28;stroke-linecap:round;stroke-linejoin:round;stroke:rgb(0%,0%,0%);stroke-opacity:1;stroke-miterlimit:10;" d="M 36852.083333 35044.010417 L 36878.90625 35029.947917 L 36933.072917 35029.947917 L 36959.895833 35044.010417 L 36973.958333 35057.03125 L 36986.979167 35084.114583 L 36986.979167 35165.104167 L 36973.958333 35191.927083 L 36959.895833 35205.989583 L 36933.072917 35219.010417 L 36878.90625 35219.010417 L 36852.083333 35205.989583 " transform="matrix(0.015,0,0,0.015,0,0)"/>
<path style="fill:none;stroke-width:28;stroke-linecap:round;stroke-linejoin:round;stroke:rgb(0%,0%,0%);stroke-opacity:1;stroke-miterlimit:10;" d="M 37109.114583 35219.010417 L 37109.114583 35029.947917 " transform="matrix(0.015,0,0,0.015,0,0)"/>
<path style="fill:none;stroke-width:28;stroke-linecap:round;stroke-linejoin:round;stroke:rgb(0%,0%,0%);stroke-opacity:1;stroke-miterlimit:10;" d="M 37109.114583 35084.114583 L 37121.875 35057.03125 L 37135.9375 35044.010417 L 37163.020833 35029.947917 L 37190.104167 35029.947917 " transform="matrix(0.015,0,0,0.015,0,0)"/>
<path style="fill:none;stroke-width:28;stroke-linecap:round;stroke-linejoin:round;stroke:rgb(0%,0%,0%);stroke-opacity:1;stroke-miterlimit:10;" d="M 37391.927083 35205.989583 L 37365.104167 35219.010417 L 37310.9375 35219.010417 L 37284.114583 35205.989583 L 37271.09375 35178.90625 L 37271.09375 35071.09375 L 37284.114583 35044.010417 L 37310.9375 35029.947917 L 37365.104167 35029.947917 L 37391.927083 35044.010417 L 37405.989583 35071.09375 L 37405.989583 35097.916667 L 37271.09375 35125 " transform="matrix(0.015,0,0,0.015,0,0)"/>
<path style="fill:none;stroke-width:28;stroke-linecap:round;stroke-linejoin:round;stroke:rgb(0%,0%,0%);stroke-opacity:1;stroke-miterlimit:10;" d="M 37648.958333 35219.010417 L 37648.958333 35071.09375 L 37634.895833 35044.010417 L 37608.072917 35029.947917 L 37553.90625 35029.947917 L 37527.083333 35044.010417 " transform="matrix(0.015,0,0,0.015,0,0)"/>
<path style="fill:none;stroke-width:28;stroke-linecap:round;stroke-linejoin:round;stroke:rgb(0%,0%,0%);stroke-opacity:1;stroke-miterlimit:10;" d="M 37648.958333 35205.989583 L 37621.875 35219.010417 L 37553.90625 35219.010417 L 37527.083333 35205.989583 L 37514.0625 35178.90625 L 37514.0625 35152.083333 L 37527.083333 35125 L 37553.90625 35110.9375 L 37621.875 35110.9375 L 37648.958333 35097.916667 " transform="matrix(0.015,0,0,0.015,0,0)"/>
<path style="fill:none;stroke-width:28;stroke-linecap:round;stroke-linejoin:round;stroke:rgb(0%,0%,0%);stroke-opacity:1;stroke-miterlimit:10;" d="M 37784.114583 35219.010417 L 37784.114583 35029.947917 " transform="matrix(0.015,0,0,0.015,0,0)"/>
<path style="fill:none;stroke-width:28;stroke-linecap:round;stroke-linejoin:round;stroke:rgb(0%,0%,0%);stroke-opacity:1;stroke-miterlimit:10;" d="M 37784.114583 35057.03125 L 37796.875 35044.010417 L 37823.958333 35029.947917 L 37865.104167 35029.947917 L 37891.927083 35044.010417 L 37904.947917 35071.09375 L 37904.947917 35219.010417 " transform="matrix(0.015,0,0,0.015,0,0)"/>
<path style="fill:none;stroke-width:28;stroke-linecap:round;stroke-linejoin:round;stroke:rgb(0%,0%,0%);stroke-opacity:1;stroke-miterlimit:10;" d="M 37904.947917 35071.09375 L 37919.010417 35044.010417 L 37946.09375 35029.947917 L 37985.9375 35029.947917 L 38013.020833 35044.010417 L 38027.083333 35071.09375 L 38027.083333 35219.010417 " transform="matrix(0.015,0,0,0.015,0,0)"/>
<path style="fill:none;stroke-width:28;stroke-linecap:round;stroke-linejoin:round;stroke:rgb(0%,0%,0%);stroke-opacity:1;stroke-miterlimit:10;" d="M 38161.979167 35029.947917 L 38161.979167 35314.0625 " transform="matrix(0.015,0,0,0.015,0,0)"/>
<path style="fill:none;stroke-width:28;stroke-linecap:round;stroke-linejoin:round;stroke:rgb(0%,0%,0%);stroke-opacity:1;stroke-miterlimit:10;" d="M 38161.979167 35044.010417 L 38189.0625 35029.947917 L 38242.96875 35029.947917 L 38270.052083 35044.010417 L 38283.072917 35057.03125 L 38296.875 35084.114583 L 38296.875 35165.104167 L 38283.072917 35191.927083 L 38270.052083 35205.989583 L 38242.96875 35219.010417 L 38189.0625 35219.010417 L 38161.979167 35205.989583 " transform="matrix(0.015,0,0,0.015,0,0)"/>
<path style="fill:none;stroke-width:28;stroke-linecap:round;stroke-linejoin:round;stroke:rgb(0%,0%,0%);stroke-opacity:1;stroke-miterlimit:10;" d="M 38417.96875 35191.927083 L 38432.03125 35205.989583 L 38417.96875 35219.010417 L 38404.947917 35205.989583 L 38417.96875 35191.927083 L 38417.96875 35219.010417 " transform="matrix(0.015,0,0,0.015,0,0)"/>
<path style="fill:none;stroke-width:28;stroke-linecap:round;stroke-linejoin:round;stroke:rgb(0%,0%,0%);stroke-opacity:1;stroke-miterlimit:10;" d="M 38553.125 35219.010417 L 38553.125 34935.9375 " transform="matrix(0.015,0,0,0.015,0,0)"/>
<path style="fill:none;stroke-width:28;stroke-linecap:round;stroke-linejoin:round;stroke:rgb(0%,0%,0%);stroke-opacity:1;stroke-miterlimit:10;" d="M 38579.947917 35110.9375 L 38660.9375 35219.010417 " transform="matrix(0.015,0,0,0.015,0,0)"/>
<path style="fill:none;stroke-width:28;stroke-linecap:round;stroke-linejoin:round;stroke:rgb(0%,0%,0%);stroke-opacity:1;stroke-miterlimit:10;" d="M 38660.9375 35029.947917 L 38553.125 35138.020833 " transform="matrix(0.015,0,0,0.015,0,0)"/>
<path style="fill:none;stroke-width:28;stroke-linecap:round;stroke-linejoin:round;stroke:rgb(0%,0%,0%);stroke-opacity:1;stroke-miterlimit:10;" d="M 38783.072917 35219.010417 L 38783.072917 35029.947917 " transform="matrix(0.015,0,0,0.015,0,0)"/>
<path style="fill:none;stroke-width:28;stroke-linecap:round;stroke-linejoin:round;stroke:rgb(0%,0%,0%);stroke-opacity:1;stroke-miterlimit:10;" d="M 38783.072917 34935.9375 L 38769.010417 34948.958333 L 38783.072917 34963.020833 L 38796.09375 34948.958333 L 38783.072917 34935.9375 L 38783.072917 34963.020833 " transform="matrix(0.015,0,0,0.015,0,0)"/>
<path style="fill:none;stroke-width:28;stroke-linecap:round;stroke-linejoin:round;stroke:rgb(0%,0%,0%);stroke-opacity:1;stroke-miterlimit:10;" d="M 39039.0625 35205.989583 L 39011.979167 35219.010417 L 38958.072917 35219.010417 L 38930.989583 35205.989583 L 38917.96875 35191.927083 L 38903.90625 35165.104167 L 38903.90625 35084.114583 L 38917.96875 35057.03125 L 38930.989583 35044.010417 L 38958.072917 35029.947917 L 39011.979167 35029.947917 L 39039.0625 35044.010417 " transform="matrix(0.015,0,0,0.015,0,0)"/>
<path style="fill:none;stroke-width:28;stroke-linecap:round;stroke-linejoin:round;stroke:rgb(0%,0%,0%);stroke-opacity:1;stroke-miterlimit:10;" d="M 39282.03125 35219.010417 L 39282.03125 35071.09375 L 39267.96875 35044.010417 L 39240.885417 35029.947917 L 39186.979167 35029.947917 L 39159.895833 35044.010417 " transform="matrix(0.015,0,0,0.015,0,0)"/>
<path style="fill:none;stroke-width:28;stroke-linecap:round;stroke-linejoin:round;stroke:rgb(0%,0%,0%);stroke-opacity:1;stroke-miterlimit:10;" d="M 39282.03125 35205.989583 L 39254.947917 35219.010417 L 39186.979167 35219.010417 L 39159.895833 35205.989583 L 39146.875 35178.90625 L 39146.875 35152.083333 L 39159.895833 35125 L 39186.979167 35110.9375 L 39254.947917 35110.9375 L 39282.03125 35097.916667 " transform="matrix(0.015,0,0,0.015,0,0)"/>
<path style="fill:none;stroke-width:28;stroke-linecap:round;stroke-linejoin:round;stroke:rgb(0%,0%,0%);stroke-opacity:1;stroke-miterlimit:10;" d="M 39538.020833 35219.010417 L 39538.020833 34935.9375 " transform="matrix(0.015,0,0,0.015,0,0)"/>
<path style="fill:none;stroke-width:28;stroke-linecap:round;stroke-linejoin:round;stroke:rgb(0%,0%,0%);stroke-opacity:1;stroke-miterlimit:10;" d="M 39538.020833 35205.989583 L 39510.9375 35219.010417 L 39457.03125 35219.010417 L 39429.947917 35205.989583 L 39416.927083 35191.927083 L 39403.125 35165.104167 L 39403.125 35084.114583 L 39416.927083 35057.03125 L 39429.947917 35044.010417 L 39457.03125 35029.947917 L 39510.9375 35029.947917 L 39538.020833 35044.010417 " transform="matrix(0.015,0,0,0.015,0,0)"/>
<path style="fill:none;stroke-width:28;stroke-linecap:round;stroke-linejoin:round;stroke:rgb(0%,0%,0%);stroke-opacity:1;stroke-miterlimit:10;" d="M 39605.989583 35246.09375 L 39821.875 35246.09375 " transform="matrix(0.015,0,0,0.015,0,0)"/>
<path style="fill:none;stroke-width:28;stroke-linecap:round;stroke-linejoin:round;stroke:rgb(0%,0%,0%);stroke-opacity:1;stroke-miterlimit:10;" d="M 33450 34296.875 L 53859.114583 34296.875 " transform="matrix(0.015,0,0,0.015,0,0)"/>
<path style="fill:none;stroke-width:28;stroke-linecap:round;stroke-linejoin:round;stroke:rgb(0%,0%,0%);stroke-opacity:1;stroke-miterlimit:10;" d="M 33707.03125 34696.09375 L 33747.916667 34709.114583 L 33815.104167 34709.114583 L 33841.927083 34696.09375 L 33855.989583 34682.03125 L 33869.010417 34654.947917 L 33869.010417 34628.125 L 33855.989583 34601.041667 L 33841.927083 34588.020833 L 33815.104167 34573.958333 L 33760.9375 34560.9375 L 33734.114583 34546.875 L 33721.09375 34534.114583 L 33707.03125 34507.03125 L 33707.03125 34479.947917 L 33721.09375 34453.125 L 33734.114583 34439.0625 L 33760.9375 34426.041667 L 33828.90625 34426.041667 L 33869.010417 34439.0625 " transform="matrix(0.015,0,0,0.015,0,0)"/>
<path style="fill:none;stroke-width:28;stroke-linecap:round;stroke-linejoin:round;stroke:rgb(0%,0%,0%);stroke-opacity:1;stroke-miterlimit:10;" d="M 33990.885417 34709.114583 L 33990.885417 34426.041667 " transform="matrix(0.015,0,0,0.015,0,0)"/>
<path style="fill:none;stroke-width:28;stroke-linecap:round;stroke-linejoin:round;stroke:rgb(0%,0%,0%);stroke-opacity:1;stroke-miterlimit:10;" d="M 34111.979167 34709.114583 L 34111.979167 34560.9375 L 34098.958333 34534.114583 L 34071.875 34520.052083 L 34030.989583 34520.052083 L 34003.90625 34534.114583 L 33990.885417 34546.875 " transform="matrix(0.015,0,0,0.015,0,0)"/>
<path style="fill:none;stroke-width:28;stroke-linecap:round;stroke-linejoin:round;stroke:rgb(0%,0%,0%);stroke-opacity:1;stroke-miterlimit:10;" d="M 34354.947917 34696.09375 L 34328.125 34709.114583 L 34273.958333 34709.114583 L 34246.875 34696.09375 L 34234.114583 34669.010417 L 34234.114583 34560.9375 L 34246.875 34534.114583 L 34273.958333 34520.052083 L 34328.125 34520.052083 L 34354.947917 34534.114583 L 34369.010417 34560.9375 L 34369.010417 34588.020833 L 34234.114583 34615.104167 " transform="matrix(0.015,0,0,0.015,0,0)"/>
<path style="fill:none;stroke-width:28;stroke-linecap:round;stroke-linejoin:round;stroke:rgb(0%,0%,0%);stroke-opacity:1;stroke-miterlimit:10;" d="M 34597.916667 34696.09375 L 34571.09375 34709.114583 L 34516.927083 34709.114583 L 34490.104167 34696.09375 L 34477.083333 34669.010417 L 34477.083333 34560.9375 L 34490.104167 34534.114583 L 34516.927083 34520.052083 L 34571.09375 34520.052083 L 34597.916667 34534.114583 L 34611.979167 34560.9375 L 34611.979167 34588.020833 L 34477.083333 34615.104167 " transform="matrix(0.015,0,0,0.015,0,0)"/>
<path style="fill:none;stroke-width:28;stroke-linecap:round;stroke-linejoin:round;stroke:rgb(0%,0%,0%);stroke-opacity:1;stroke-miterlimit:10;" d="M 34692.96875 34520.052083 L 34801.041667 34520.052083 " transform="matrix(0.015,0,0,0.015,0,0)"/>
<path style="fill:none;stroke-width:28;stroke-linecap:round;stroke-linejoin:round;stroke:rgb(0%,0%,0%);stroke-opacity:1;stroke-miterlimit:10;" d="M 34733.072917 34426.041667 L 34733.072917 34669.010417 L 34746.875 34696.09375 L 34773.958333 34709.114583 L 34801.041667 34709.114583 " transform="matrix(0.015,0,0,0.015,0,0)"/>
<path style="fill:none;stroke-width:28;stroke-linecap:round;stroke-linejoin:round;stroke:rgb(0%,0%,0%);stroke-opacity:1;stroke-miterlimit:10;" d="M 34895.052083 34682.03125 L 34909.114583 34696.09375 L 34895.052083 34709.114583 L 34882.03125 34696.09375 L 34895.052083 34682.03125 L 34895.052083 34709.114583 " transform="matrix(0.015,0,0,0.015,0,0)"/>
<path style="fill:none;stroke-width:28;stroke-linecap:round;stroke-linejoin:round;stroke:rgb(0%,0%,0%);stroke-opacity:1;stroke-miterlimit:10;" d="M 34895.052083 34534.114583 L 34909.114583 34546.875 L 34895.052083 34560.9375 L 34882.03125 34546.875 L 34895.052083 34534.114583 L 34895.052083 34560.9375 " transform="matrix(0.015,0,0,0.015,0,0)"/>
<path style="fill:none;stroke-width:28;stroke-linecap:round;stroke-linejoin:round;stroke:rgb(0%,0%,0%);stroke-opacity:1;stroke-miterlimit:10;" d="M 37229.947917 36186.979167 L 37229.947917 36753.90625 " transform="matrix(0.015,0,0,0.015,0,0)"/>
</g>
</svg>
