<?xml version="1.0" standalone="no"?>
 <!DOCTYPE svg PUBLIC "-//W3C//DTD SVG 1.1//EN" 
 "http://www.w3.org/Graphics/SVG/1.1/DTD/svg11.dtd"> 
<svg
  xmlns:svg="http://www.w3.org/2000/svg"
  xmlns="http://www.w3.org/2000/svg"
  xmlns:xlink="http://www.w3.org/1999/xlink"
  version="1.1"
  width="29.700220cm" height="21.000720cm" viewBox="0 0 116930 82680">
<title>SVG Picture created as hw-mic-preamp-F_SilkS.svg date 2021/04/04 18:43:07 </title>
  <desc>Picture generated by PCBNEW </desc>
<g style="fill:#000000; fill-opacity:1;stroke:#000000; stroke-opacity:1;
stroke-linecap:round; stroke-linejoin:round;"
 transform="translate(0 0) scale(1 1)">
</g>
<g style="fill:#000000; fill-opacity:0.0; 
stroke:#000000; stroke-width:-0.000393701; stroke-opacity:1; 
stroke-linecap:round; stroke-linejoin:round;">
</g>
<g style="fill:#000000; fill-opacity:0.0; 
stroke:#000000; stroke-width:47.2441; stroke-opacity:1; 
stroke-linecap:round; stroke-linejoin:round;">
<path d="M246168 179438
L246168 179616
" />
<path d="M246746 179438
L246746 179616
" />
<path d="M254435 179438
L254435 179616
" />
<path d="M255014 179438
L255014 179616
" />
<path d="M253833 179026
L253833 178847
" />
<path d="M253254 179026
L253254 178847
" />
<path d="M259735 178057
L259557 178057
" />
<path d="M259735 178635
L259557 178635
" />
<path d="M252255 179828
L252076 179828
" />
<path d="M252255 180407
L252076 180407
" />
<path d="M252076 179029
L252255 179029
" />
<path d="M252076 178450
L252255 178450
" />
<path d="M259557 179816
L259735 179816
" />
<path d="M259557 179238
L259735 179238
" />
<path d="M258948 180616
L258769 180616
" />
<path d="M258948 181194
L258769 181194
" />
<path d="M250000 178330
L248874 178330
" />
<path d="M248874 178330
L248874 177574
" />
<path d="M248874 177574
L250000 177574
" />
<path d="M260735 179031
L260735 179236
" />
<path d="M261313 179031
L261313 179236
" />
<path d="M256693 178322
L258052 178322
" />
<path d="M256693 178322
L255926 178322
" />
<path d="M256693 180338
L257461 180338
" />
<path d="M256693 180338
L255926 180338
" />
<path d="M249504 179828
L249710 179828
" />
<path d="M249504 180407
L249710 180407
" />
<path d="M255803 177663
L256009 177663
" />
<path d="M255803 178242
L256009 178242
" />
<path d="M260345 180222
L260551 180222
" />
<path d="M260345 180801
L260551 180801
" />
</g>
<g style="fill:#000000; fill-opacity:0.0; 
stroke:#000000; stroke-width:59.0551; stroke-opacity:1; 
stroke-linecap:round; stroke-linejoin:round;">
<g transform="rotate(-90 245808 179528)">
<text x="245808" y="179724"
textLength="768.654" font-size="524.934" lengthAdjust="spacingAndGlyphs"
text-anchor="middle" opacity="0">R8</text>
</g>
<path d="M245629 179593
L245817 179724
" />
<path d="M245629 179818
L246023 179818
L246023 179668
L246004 179630
L245986 179611
L245948 179593
L245892 179593
L245854 179611
L245836 179630
L245817 179668
L245817 179818
" />
<path d="M245854 179368
L245873 179405
L245892 179424
L245929 179443
L245948 179443
L245986 179424
L246004 179405
L246023 179368
L246023 179293
L246004 179255
L245986 179236
L245948 179218
L245929 179218
L245892 179236
L245873 179255
L245854 179293
L245854 179368
L245836 179405
L245817 179424
L245779 179443
L245704 179443
L245667 179424
L245648 179405
L245629 179368
L245629 179293
L245648 179255
L245667 179236
L245704 179218
L245779 179218
L245817 179236
L245836 179255
L245854 179293
" />
<g transform="rotate(-90 254076 179528)">
<text x="254076" y="179724"
textLength="845.426" font-size="524.934" lengthAdjust="spacingAndGlyphs"
text-anchor="middle" opacity="0">R7</text>
</g>
<path d="M253897 179593
L254085 179724
" />
<path d="M253897 179818
L254291 179818
L254291 179668
L254272 179630
L254253 179611
L254216 179593
L254160 179593
L254122 179611
L254103 179630
L254085 179668
L254085 179818
" />
<path d="M254291 179461
L254291 179199
L253897 179368
" />
<g transform="rotate(-90 254194 178937)">
<text x="254194" y="179134"
textLength="845.426" font-size="524.934" lengthAdjust="spacingAndGlyphs"
text-anchor="middle" opacity="0">R6</text>
</g>
<path d="M254015 179002
L254203 179133
" />
<path d="M254015 179227
L254409 179227
L254409 179077
L254390 179040
L254371 179021
L254334 179002
L254278 179002
L254240 179021
L254221 179040
L254203 179077
L254203 179227
" />
<path d="M254409 178665
L254409 178740
L254390 178777
L254371 178796
L254315 178833
L254240 178852
L254090 178852
L254053 178833
L254034 178815
L254015 178777
L254015 178702
L254034 178665
L254053 178646
L254090 178627
L254184 178627
L254221 178646
L254240 178665
L254259 178702
L254259 178777
L254240 178815
L254221 178833
L254184 178852
" />
<text x="259647" y="177894"
textLength="845.426" font-size="524.934" lengthAdjust="spacingAndGlyphs"
text-anchor="middle" opacity="0">R5</text>
<path d="M259712 177874
L259843 177687
" />
<path d="M259937 177874
L259937 177481
L259787 177481
L259749 177500
L259730 177518
L259712 177556
L259712 177612
L259730 177649
L259749 177668
L259787 177687
L259937 177687
" />
<path d="M259355 177481
L259543 177481
L259562 177668
L259543 177649
L259505 177631
L259412 177631
L259374 177649
L259355 177668
L259337 177706
L259337 177799
L259355 177837
L259374 177856
L259412 177874
L259505 177874
L259543 177856
L259562 177837
" />
<text x="252166" y="179665"
textLength="845.426" font-size="524.934" lengthAdjust="spacingAndGlyphs"
text-anchor="middle" opacity="0">R4</text>
<path d="M252231 179646
L252363 179459
" />
<path d="M252456 179646
L252456 179252
L252306 179252
L252269 179271
L252250 179290
L252231 179327
L252231 179384
L252250 179421
L252269 179440
L252306 179459
L252456 179459
" />
<path d="M251894 179384
L251894 179646
" />
<path d="M251988 179234
L252081 179515
L251838 179515
" />
<text x="252166" y="179587"
textLength="845.426" font-size="524.934" lengthAdjust="spacingAndGlyphs"
text-anchor="middle" opacity="0">R3</text>
<path d="M252231 179567
L252363 179380
" />
<path d="M252456 179567
L252456 179174
L252306 179174
L252269 179192
L252250 179211
L252231 179249
L252231 179305
L252250 179342
L252269 179361
L252306 179380
L252456 179380
" />
<path d="M252100 179174
L251856 179174
L251988 179324
L251931 179324
L251894 179342
L251875 179361
L251856 179399
L251856 179492
L251875 179530
L251894 179549
L251931 179567
L252044 179567
L252081 179549
L252100 179530
" />
<text x="259647" y="180374"
textLength="845.426" font-size="524.934" lengthAdjust="spacingAndGlyphs"
text-anchor="middle" opacity="0">R2</text>
<path d="M259712 180355
L259843 180167
" />
<path d="M259937 180355
L259937 179961
L259787 179961
L259749 179980
L259730 179999
L259712 180036
L259712 180092
L259730 180130
L259749 180149
L259787 180167
L259937 180167
" />
<path d="M259562 179999
L259543 179980
L259505 179961
L259412 179961
L259374 179980
L259355 179999
L259337 180036
L259337 180074
L259355 180130
L259580 180355
L259337 180355
" />
<text x="258859" y="180453"
textLength="845.426" font-size="524.934" lengthAdjust="spacingAndGlyphs"
text-anchor="middle" opacity="0">R1</text>
<path d="M258924 180434
L259055 180246
" />
<path d="M259149 180434
L259149 180040
L258999 180040
L258962 180059
L258943 180077
L258924 180115
L258924 180171
L258943 180209
L258962 180227
L258999 180246
L259149 180246
" />
<path d="M258549 180434
L258774 180434
" />
<path d="M258662 180434
L258662 180040
L258699 180096
L258737 180134
L258774 180152
" />
<g transform="rotate(-90 246276 178346)">
<text x="246276" y="178543"
textLength="751.687" font-size="524.934" lengthAdjust="spacingAndGlyphs"
text-anchor="middle" opacity="0">J3</text>
</g>
<path d="M246492 178477
L246210 178477
L246154 178496
L246117 178533
L246098 178590
L246098 178627
" />
<path d="M246492 178327
L246492 178083
L246342 178215
L246342 178158
L246323 178121
L246304 178102
L246267 178083
L246173 178083
L246135 178102
L246117 178121
L246098 178158
L246098 178271
L246117 178308
L246135 178327
" />
<g transform="rotate(-90 246276 179331)">
<text x="246276" y="179528"
textLength="751.687" font-size="524.934" lengthAdjust="spacingAndGlyphs"
text-anchor="middle" opacity="0">J2</text>
</g>
<path d="M246492 179461
L246210 179461
L246154 179480
L246117 179518
L246098 179574
L246098 179611
" />
<path d="M246454 179293
L246473 179274
L246492 179236
L246492 179143
L246473 179105
L246454 179086
L246417 179068
L246379 179068
L246323 179086
L246098 179311
L246098 179068
" />
<g transform="rotate(-90 246276 180118)">
<text x="246276" y="180315"
textLength="751.687" font-size="524.934" lengthAdjust="spacingAndGlyphs"
text-anchor="middle" opacity="0">J1</text>
</g>
<path d="M246492 180249
L246210 180249
L246154 180268
L246117 180305
L246098 180361
L246098 180399
" />
<path d="M246098 179855
L246098 180080
" />
<path d="M246098 179968
L246492 179968
L246435 180005
L246398 180043
L246379 180080
" />
<text x="249607" y="178799"
textLength="845.426" font-size="524.934" lengthAdjust="spacingAndGlyphs"
text-anchor="middle" opacity="0">D1</text>
<path d="M249897 178780
L249897 178386
L249804 178386
L249747 178405
L249710 178443
L249691 178480
L249672 178555
L249672 178611
L249691 178686
L249710 178724
L249747 178761
L249804 178780
L249897 178780
" />
<path d="M249297 178780
L249522 178780
" />
<path d="M249410 178780
L249410 178386
L249447 178443
L249485 178480
L249522 178499
" />
<g transform="rotate(-90 260363 179134)">
<text x="260363" y="179331"
textLength="845.426" font-size="524.934" lengthAdjust="spacingAndGlyphs"
text-anchor="middle" opacity="0">C1</text>
</g>
<path d="M260222 179199
L260203 179218
L260184 179274
L260184 179311
L260203 179368
L260241 179405
L260278 179424
L260353 179443
L260409 179443
L260484 179424
L260522 179405
L260559 179368
L260578 179311
L260578 179274
L260559 179218
L260541 179199
" />
<path d="M260184 178824
L260184 179049
" />
<path d="M260184 178937
L260578 178937
L260522 178974
L260484 179011
L260466 179049
" />
<text x="256694" y="178189"
textLength="864.173" font-size="524.934" lengthAdjust="spacingAndGlyphs"
text-anchor="middle" opacity="0">U1</text>
<path d="M256993 177776
L256993 178095
L256974 178132
L256956 178151
L256918 178170
L256843 178170
L256806 178151
L256787 178132
L256768 178095
L256768 177776
" />
<path d="M256375 178170
L256600 178170
" />
<path d="M256487 178170
L256487 177776
L256525 177832
L256562 177870
L256600 177889
" />
<text x="249607" y="180976"
textLength="845.426" font-size="524.934" lengthAdjust="spacingAndGlyphs"
text-anchor="middle" opacity="0">C4</text>
<path d="M249672 180920
L249691 180938
L249747 180957
L249785 180957
L249841 180938
L249879 180901
L249897 180863
L249916 180788
L249916 180732
L249897 180657
L249879 180620
L249841 180582
L249785 180563
L249747 180563
L249691 180582
L249672 180601
" />
<path d="M249335 180695
L249335 180957
" />
<path d="M249429 180545
L249522 180826
L249279 180826
" />
<text x="255906" y="178811"
textLength="845.426" font-size="524.934" lengthAdjust="spacingAndGlyphs"
text-anchor="middle" opacity="0">C3</text>
<path d="M255971 178754
L255990 178773
L256046 178792
L256084 178792
L256140 178773
L256178 178736
L256196 178698
L256215 178623
L256215 178567
L256196 178492
L256178 178454
L256140 178417
L256084 178398
L256046 178398
L255990 178417
L255971 178436
" />
<path d="M255840 178398
L255597 178398
L255728 178548
L255672 178548
L255634 178567
L255615 178586
L255597 178623
L255597 178717
L255615 178754
L255634 178773
L255672 178792
L255784 178792
L255822 178773
L255840 178754
" />
<text x="260449" y="181370"
textLength="1932.79" font-size="524.934" lengthAdjust="spacingAndGlyphs"
text-anchor="middle" opacity="0">220n1</text>
<path d="M261301 180995
L261282 180976
L261245 180957
L261151 180957
L261114 180976
L261095 180995
L261076 181032
L261076 181070
L261095 181126
L261320 181351
L261076 181351
" />
<path d="M260926 180995
L260908 180976
L260870 180957
L260776 180957
L260739 180976
L260720 180995
L260701 181032
L260701 181070
L260720 181126
L260945 181351
L260701 181351
" />
<path d="M260458 180957
L260420 180957
L260383 180976
L260364 180995
L260345 181032
L260326 181107
L260326 181201
L260345 181276
L260364 181313
L260383 181332
L260420 181351
L260458 181351
L260495 181332
L260514 181313
L260533 181276
L260551 181201
L260551 181107
L260533 181032
L260514 180995
L260495 180976
L260458 180957
" />
<path d="M260158 181088
L260158 181351
" />
<path d="M260158 181126
L260139 181107
L260101 181088
L260045 181088
L260008 181107
L259989 181145
L259989 181351
" />
<path d="M259595 181351
L259820 181351
" />
<path d="M259708 181351
L259708 180957
L259745 181013
L259783 181051
L259820 181070
" />
<g >
</g>
</g> 
</svg>
