<?xml version="1.0" standalone="no"?>
 <!DOCTYPE svg PUBLIC "-//W3C//DTD SVG 1.1//EN" 
 "http://www.w3.org/Graphics/SVG/1.1/DTD/svg11.dtd"> 
<svg
  xmlns:svg="http://www.w3.org/2000/svg"
  xmlns="http://www.w3.org/2000/svg"
  xmlns:xlink="http://www.w3.org/1999/xlink"
  version="1.1"
  width="29.700220cm" height="21.000720cm" viewBox="0 0 116930 82680">
<title>SVG Picture created as hw-mic-preamp-F_Cu.svg date 2021/04/04 18:43:07 </title>
  <desc>Picture generated by PCBNEW </desc>
<g style="fill:#000000; fill-opacity:1;stroke:#000000; stroke-opacity:1;
stroke-linecap:round; stroke-linejoin:round;"
 transform="translate(0 0) scale(1 1)">
</g>
<g style="fill:#000000; fill-opacity:0.0; 
stroke:#000000; stroke-width:-0.000393701; stroke-opacity:1; 
stroke-linecap:round; stroke-linejoin:round;">
<g >
</g>
<g style="fill:#000000; fill-opacity:1.0; 
stroke:#000000; stroke-width:0; stroke-opacity:1; 
stroke-linecap:round; stroke-linejoin:round;">
<circle cx="249213" cy="179331" r="236.22" /> 
</g>
<g style="fill:#000000; fill-opacity:1.0; 
stroke:#000000; stroke-width:39.3701; stroke-opacity:1; 
stroke-linecap:round; stroke-linejoin:round;">
</g>
<g style="fill:#000000; fill-opacity:1.0; 
stroke:#000000; stroke-width:0; stroke-opacity:1; 
stroke-linecap:round; stroke-linejoin:round;">
<path style="fill:#000000; fill-opacity:1.0; 
stroke:#000000; stroke-width:0; stroke-opacity:1; 
stroke-linecap:round; stroke-linejoin:round;fill-rule:evenodd;"
d="M 250237,179567
250237,179094
249765,179094
249765,179567
Z" /> 
</g>
<g >
</g>
<g style="fill:#000000; fill-opacity:1.0; 
stroke:#000000; stroke-width:0; stroke-opacity:1; 
stroke-linecap:round; stroke-linejoin:round;">
<circle cx="252560" cy="179331" r="236.22" /> 
</g>
<g style="fill:#000000; fill-opacity:1.0; 
stroke:#000000; stroke-width:39.3701; stroke-opacity:1; 
stroke-linecap:round; stroke-linejoin:round;">
</g>
<g style="fill:#000000; fill-opacity:1.0; 
stroke:#000000; stroke-width:0; stroke-opacity:1; 
stroke-linecap:round; stroke-linejoin:round;">
<path style="fill:#000000; fill-opacity:1.0; 
stroke:#000000; stroke-width:0; stroke-opacity:1; 
stroke-linecap:round; stroke-linejoin:round;fill-rule:evenodd;"
d="M 251536,179094
251536,179567
252009,179567
252009,179094
Z" /> 
</g>
<g >
</g>
<g style="fill:#000000; fill-opacity:1.0; 
stroke:#000000; stroke-width:0; stroke-opacity:1; 
stroke-linecap:round; stroke-linejoin:round;">
<path style="fill:#000000; fill-opacity:1.0; 
stroke:#000000; stroke-width:0; stroke-opacity:1; 
stroke-linecap:round; stroke-linejoin:round;fill-rule:evenodd;"
d="M 246271,179686
246261,179687
246252,179689
246243,179693
246234,179697
246226,179702
246218,179707
246211,179714
246204,179721
246199,179729
246194,179737
246189,179746
246186,179755
246184,179764
246182,179774
246182,179783
246182,180059
246182,180069
246184,180078
246186,180088
246189,180097
246194,180105
246199,180114
246204,180121
246211,180129
246218,180135
246226,180141
246234,180146
246243,180150
246252,180153
246261,180156
246271,180157
246280,180157
246635,180157
246644,180157
246654,180156
246663,180153
246672,180150
246681,180146
246689,180141
246697,180135
246704,180129
246711,180121
246717,180114
246722,180105
246726,180097
246729,180088
246731,180078
246733,180069
246733,180059
246733,179783
246733,179774
246731,179764
246729,179755
246726,179746
246722,179737
246717,179729
246711,179721
246704,179714
246697,179707
246689,179702
246681,179697
246672,179693
246663,179689
246654,179687
246644,179686
246635,179685
246280,179685
Z" /> 
<path style="fill:#000000; fill-opacity:1.0; 
stroke:#000000; stroke-width:0; stroke-opacity:1; 
stroke-linecap:round; stroke-linejoin:round;fill-rule:evenodd;"
d="M 246271,178898
246261,178900
246252,178902
246243,178905
246234,178909
246226,178914
246218,178920
246211,178926
246204,178934
246199,178941
246194,178950
246189,178958
246186,178967
246184,178977
246182,178986
246182,178996
246182,179272
246182,179281
246184,179291
246186,179300
246189,179309
246194,179318
246199,179326
246204,179334
246211,179341
246218,179348
246226,179353
246234,179358
246243,179363
246252,179366
246261,179368
246271,179370
246280,179370
246635,179370
246644,179370
246654,179368
246663,179366
246672,179363
246681,179358
246689,179353
246697,179348
246704,179341
246711,179334
246717,179326
246722,179318
246726,179309
246729,179300
246731,179291
246733,179281
246733,179272
246733,178996
246733,178986
246731,178977
246729,178967
246726,178958
246722,178950
246717,178941
246711,178934
246704,178926
246697,178920
246689,178914
246681,178909
246672,178905
246663,178902
246654,178900
246644,178898
246635,178898
246280,178898
Z" /> 
</g>
<g >
</g>
<g style="fill:#000000; fill-opacity:1.0; 
stroke:#000000; stroke-width:0; stroke-opacity:1; 
stroke-linecap:round; stroke-linejoin:round;">
<path style="fill:#000000; fill-opacity:1.0; 
stroke:#000000; stroke-width:0; stroke-opacity:1; 
stroke-linecap:round; stroke-linejoin:round;fill-rule:evenodd;"
d="M 254538,179686
254529,179687
254520,179689
254510,179693
254502,179697
254493,179702
254486,179707
254479,179714
254472,179721
254466,179729
254461,179737
254457,179746
254454,179755
254452,179764
254450,179774
254450,179783
254450,180059
254450,180069
254452,180078
254454,180088
254457,180097
254461,180105
254466,180114
254472,180121
254479,180129
254486,180135
254493,180141
254502,180146
254510,180150
254520,180153
254529,180156
254538,180157
254548,180157
254902,180157
254912,180157
254922,180156
254931,180153
254940,180150
254949,180146
254957,180141
254965,180135
254972,180129
254979,180121
254984,180114
254989,180105
254993,180097
254997,180088
254999,180078
255000,180069
255001,180059
255001,179783
255000,179774
254999,179764
254997,179755
254993,179746
254989,179737
254984,179729
254979,179721
254972,179714
254965,179707
254957,179702
254949,179697
254940,179693
254931,179689
254922,179687
254912,179686
254902,179685
254548,179685
Z" /> 
<path style="fill:#000000; fill-opacity:1.0; 
stroke:#000000; stroke-width:0; stroke-opacity:1; 
stroke-linecap:round; stroke-linejoin:round;fill-rule:evenodd;"
d="M 254538,178898
254529,178900
254520,178902
254510,178905
254502,178909
254493,178914
254486,178920
254479,178926
254472,178934
254466,178941
254461,178950
254457,178958
254454,178967
254452,178977
254450,178986
254450,178996
254450,179272
254450,179281
254452,179291
254454,179300
254457,179309
254461,179318
254466,179326
254472,179334
254479,179341
254486,179348
254493,179353
254502,179358
254510,179363
254520,179366
254529,179368
254538,179370
254548,179370
254902,179370
254912,179370
254922,179368
254931,179366
254940,179363
254949,179358
254957,179353
254965,179348
254972,179341
254979,179334
254984,179326
254989,179318
254993,179309
254997,179300
254999,179291
255000,179281
255001,179272
255001,178996
255000,178986
254999,178977
254997,178967
254993,178958
254989,178950
254984,178941
254979,178934
254972,178926
254965,178920
254957,178914
254949,178909
254940,178905
254931,178902
254922,178900
254912,178898
254902,178898
254548,178898
Z" /> 
</g>
<g >
</g>
<g style="fill:#000000; fill-opacity:1.0; 
stroke:#000000; stroke-width:0; stroke-opacity:1; 
stroke-linecap:round; stroke-linejoin:round;">
<path style="fill:#000000; fill-opacity:1.0; 
stroke:#000000; stroke-width:0; stroke-opacity:1; 
stroke-linecap:round; stroke-linejoin:round;fill-rule:evenodd;"
d="M 253357,178308
253348,178309
253338,178311
253329,178315
253321,178319
253312,178324
253305,178329
253297,178336
253291,178343
253285,178351
253280,178359
253276,178368
253273,178377
253270,178386
253269,178396
253269,178406
253269,178681
253269,178691
253270,178700
253273,178710
253276,178719
253280,178728
253285,178736
253291,178744
253297,178751
253305,178757
253312,178763
253321,178768
253329,178772
253338,178775
253348,178778
253357,178779
253367,178780
253721,178780
253731,178779
253741,178778
253750,178775
253759,178772
253768,178768
253776,178763
253784,178757
253791,178751
253797,178744
253803,178736
253808,178728
253812,178719
253816,178710
253818,178700
253819,178691
253820,178681
253820,178406
253819,178396
253818,178386
253816,178377
253812,178368
253808,178359
253803,178351
253797,178343
253791,178336
253784,178329
253776,178324
253768,178319
253759,178315
253750,178311
253741,178309
253731,178308
253721,178307
253367,178307
Z" /> 
<path style="fill:#000000; fill-opacity:1.0; 
stroke:#000000; stroke-width:0; stroke-opacity:1; 
stroke-linecap:round; stroke-linejoin:round;fill-rule:evenodd;"
d="M 253357,179095
253348,179096
253338,179099
253329,179102
253321,179106
253312,179111
253305,179117
253297,179123
253291,179130
253285,179138
253280,179147
253276,179155
253273,179164
253270,179174
253269,179183
253269,179193
253269,179469
253269,179478
253270,179488
253273,179497
253276,179506
253280,179515
253285,179523
253291,179531
253297,179538
253305,179545
253312,179550
253321,179555
253329,179559
253338,179563
253348,179565
253357,179566
253367,179567
253721,179567
253731,179566
253741,179565
253750,179563
253759,179559
253768,179555
253776,179550
253784,179545
253791,179538
253797,179531
253803,179523
253808,179515
253812,179506
253816,179497
253818,179488
253819,179478
253820,179469
253820,179193
253819,179183
253818,179174
253816,179164
253812,179155
253808,179147
253803,179138
253797,179130
253791,179123
253784,179117
253776,179111
253768,179106
253759,179102
253750,179099
253741,179096
253731,179095
253721,179094
253367,179094
Z" /> 
</g>
<g >
</g>
<g style="fill:#000000; fill-opacity:1.0; 
stroke:#000000; stroke-width:0; stroke-opacity:1; 
stroke-linecap:round; stroke-linejoin:round;">
<path style="fill:#000000; fill-opacity:1.0; 
stroke:#000000; stroke-width:0; stroke-opacity:1; 
stroke-linecap:round; stroke-linejoin:round;fill-rule:evenodd;"
d="M 259105,178071
259096,178073
259086,178075
259077,178078
259069,178082
259060,178087
259053,178093
259045,178100
259039,178107
259033,178115
259028,178123
259024,178132
259021,178141
259019,178150
259017,178160
259017,178169
259017,178524
259017,178533
259019,178543
259021,178552
259024,178561
259028,178570
259033,178578
259039,178586
259045,178593
259053,178600
259060,178605
259069,178610
259077,178615
259086,178618
259096,178620
259105,178622
259115,178622
259391,178622
259400,178622
259410,178620
259419,178618
259428,178615
259437,178610
259445,178605
259453,178600
259460,178593
259467,178586
259472,178578
259477,178570
259482,178561
259485,178552
259487,178543
259489,178533
259489,178524
259489,178169
259489,178160
259487,178150
259485,178141
259482,178132
259477,178123
259472,178115
259467,178107
259460,178100
259453,178093
259445,178087
259437,178082
259428,178078
259419,178075
259410,178073
259400,178071
259391,178071
259115,178071
Z" /> 
<path style="fill:#000000; fill-opacity:1.0; 
stroke:#000000; stroke-width:0; stroke-opacity:1; 
stroke-linecap:round; stroke-linejoin:round;fill-rule:evenodd;"
d="M 259893,178071
259883,178073
259874,178075
259865,178078
259856,178082
259848,178087
259840,178093
259833,178100
259826,178107
259821,178115
259816,178123
259812,178132
259808,178141
259806,178150
259804,178160
259804,178169
259804,178524
259804,178533
259806,178543
259808,178552
259812,178561
259816,178570
259821,178578
259826,178586
259833,178593
259840,178600
259848,178605
259856,178610
259865,178615
259874,178618
259883,178620
259893,178622
259902,178622
260178,178622
260188,178622
260197,178620
260207,178618
260216,178615
260224,178610
260233,178605
260240,178600
260248,178593
260254,178586
260260,178578
260265,178570
260269,178561
260272,178552
260275,178543
260276,178533
260276,178524
260276,178169
260276,178160
260275,178150
260272,178141
260269,178132
260265,178123
260260,178115
260254,178107
260248,178100
260240,178093
260233,178087
260224,178082
260216,178078
260207,178075
260197,178073
260188,178071
260178,178071
259902,178071
Z" /> 
</g>
<g >
</g>
<g style="fill:#000000; fill-opacity:1.0; 
stroke:#000000; stroke-width:0; stroke-opacity:1; 
stroke-linecap:round; stroke-linejoin:round;">
<path style="fill:#000000; fill-opacity:1.0; 
stroke:#000000; stroke-width:0; stroke-opacity:1; 
stroke-linecap:round; stroke-linejoin:round;fill-rule:evenodd;"
d="M 251625,179843
251616,179844
251606,179847
251597,179850
251588,179854
251580,179859
251572,179865
251565,179871
251559,179879
251553,179886
251548,179895
251544,179903
251541,179912
251538,179922
251537,179931
251536,179941
251536,180295
251537,180305
251538,180314
251541,180324
251544,180333
251548,180342
251553,180350
251559,180358
251565,180365
251572,180371
251580,180377
251588,180382
251597,180386
251606,180389
251616,180392
251625,180393
251635,180394
251910,180394
251920,180393
251930,180392
251939,180389
251948,180386
251957,180382
251965,180377
251973,180371
251980,180365
251986,180358
251992,180350
251997,180342
252001,180333
252005,180324
252007,180314
252008,180305
252009,180295
252009,179941
252008,179931
252007,179922
252005,179912
252001,179903
251997,179895
251992,179886
251986,179879
251980,179871
251973,179865
251965,179859
251957,179854
251948,179850
251939,179847
251930,179844
251920,179843
251910,179843
251635,179843
Z" /> 
<path style="fill:#000000; fill-opacity:1.0; 
stroke:#000000; stroke-width:0; stroke-opacity:1; 
stroke-linecap:round; stroke-linejoin:round;fill-rule:evenodd;"
d="M 252412,179843
252403,179844
252394,179847
252384,179850
252376,179854
252367,179859
252360,179865
252353,179871
252346,179879
252340,179886
252335,179895
252331,179903
252328,179912
252326,179922
252324,179931
252324,179941
252324,180295
252324,180305
252326,180314
252328,180324
252331,180333
252335,180342
252340,180350
252346,180358
252353,180365
252360,180371
252367,180377
252376,180382
252384,180386
252394,180389
252403,180392
252412,180393
252422,180394
252698,180394
252707,180393
252717,180392
252726,180389
252735,180386
252744,180382
252752,180377
252760,180371
252767,180365
252774,180358
252780,180350
252785,180342
252789,180333
252792,180324
252794,180314
252796,180305
252796,180295
252796,179941
252796,179931
252794,179922
252792,179912
252789,179903
252785,179895
252780,179886
252774,179879
252767,179871
252760,179865
252752,179859
252744,179854
252735,179850
252726,179847
252717,179844
252707,179843
252698,179843
252422,179843
Z" /> 
</g>
<g >
</g>
<g style="fill:#000000; fill-opacity:1.0; 
stroke:#000000; stroke-width:0; stroke-opacity:1; 
stroke-linecap:round; stroke-linejoin:round;">
<path style="fill:#000000; fill-opacity:1.0; 
stroke:#000000; stroke-width:0; stroke-opacity:1; 
stroke-linecap:round; stroke-linejoin:round;fill-rule:evenodd;"
d="M 252412,178465
252403,178466
252394,178469
252384,178472
252376,178476
252367,178481
252360,178487
252353,178493
252346,178501
252340,178508
252335,178517
252331,178525
252328,178534
252326,178544
252324,178553
252324,178563
252324,178917
252324,178927
252326,178937
252328,178946
252331,178955
252335,178964
252340,178972
252346,178980
252353,178987
252360,178993
252367,178999
252376,179004
252384,179008
252394,179012
252403,179014
252412,179015
252422,179016
252698,179016
252707,179015
252717,179014
252726,179012
252735,179008
252744,179004
252752,178999
252760,178993
252767,178987
252774,178980
252780,178972
252785,178964
252789,178955
252792,178946
252794,178937
252796,178927
252796,178917
252796,178563
252796,178553
252794,178544
252792,178534
252789,178525
252785,178517
252780,178508
252774,178501
252767,178493
252760,178487
252752,178481
252744,178476
252735,178472
252726,178469
252717,178466
252707,178465
252698,178465
252422,178465
Z" /> 
<path style="fill:#000000; fill-opacity:1.0; 
stroke:#000000; stroke-width:0; stroke-opacity:1; 
stroke-linecap:round; stroke-linejoin:round;fill-rule:evenodd;"
d="M 251625,178465
251616,178466
251606,178469
251597,178472
251588,178476
251580,178481
251572,178487
251565,178493
251559,178501
251553,178508
251548,178517
251544,178525
251541,178534
251538,178544
251537,178553
251536,178563
251536,178917
251537,178927
251538,178937
251541,178946
251544,178955
251548,178964
251553,178972
251559,178980
251565,178987
251572,178993
251580,178999
251588,179004
251597,179008
251606,179012
251616,179014
251625,179015
251635,179016
251910,179016
251920,179015
251930,179014
251939,179012
251948,179008
251957,179004
251965,178999
251973,178993
251980,178987
251986,178980
251992,178972
251997,178964
252001,178955
252005,178946
252007,178937
252008,178927
252009,178917
252009,178563
252008,178553
252007,178544
252005,178534
252001,178525
251997,178517
251992,178508
251986,178501
251980,178493
251973,178487
251965,178481
251957,178476
251948,178472
251939,178469
251930,178466
251920,178465
251910,178465
251635,178465
Z" /> 
</g>
<g >
</g>
<g style="fill:#000000; fill-opacity:1.0; 
stroke:#000000; stroke-width:0; stroke-opacity:1; 
stroke-linecap:round; stroke-linejoin:round;">
<path style="fill:#000000; fill-opacity:1.0; 
stroke:#000000; stroke-width:0; stroke-opacity:1; 
stroke-linecap:round; stroke-linejoin:round;fill-rule:evenodd;"
d="M 259893,179252
259883,179254
259874,179256
259865,179259
259856,179264
259848,179269
259840,179274
259833,179281
259826,179288
259821,179296
259816,179304
259812,179313
259808,179322
259806,179331
259804,179341
259804,179350
259804,179705
259804,179714
259806,179724
259808,179733
259812,179742
259816,179751
259821,179759
259826,179767
259833,179774
259840,179781
259848,179787
259856,179792
259865,179796
259874,179799
259883,179801
259893,179803
259902,179803
260178,179803
260188,179803
260197,179801
260207,179799
260216,179796
260224,179792
260233,179787
260240,179781
260248,179774
260254,179767
260260,179759
260265,179751
260269,179742
260272,179733
260275,179724
260276,179714
260276,179705
260276,179350
260276,179341
260275,179331
260272,179322
260269,179313
260265,179304
260260,179296
260254,179288
260248,179281
260240,179274
260233,179269
260224,179264
260216,179259
260207,179256
260197,179254
260188,179252
260178,179252
259902,179252
Z" /> 
<path style="fill:#000000; fill-opacity:1.0; 
stroke:#000000; stroke-width:0; stroke-opacity:1; 
stroke-linecap:round; stroke-linejoin:round;fill-rule:evenodd;"
d="M 259105,179252
259096,179254
259086,179256
259077,179259
259069,179264
259060,179269
259053,179274
259045,179281
259039,179288
259033,179296
259028,179304
259024,179313
259021,179322
259019,179331
259017,179341
259017,179350
259017,179705
259017,179714
259019,179724
259021,179733
259024,179742
259028,179751
259033,179759
259039,179767
259045,179774
259053,179781
259060,179787
259069,179792
259077,179796
259086,179799
259096,179801
259105,179803
259115,179803
259391,179803
259400,179803
259410,179801
259419,179799
259428,179796
259437,179792
259445,179787
259453,179781
259460,179774
259467,179767
259472,179759
259477,179751
259482,179742
259485,179733
259487,179724
259489,179714
259489,179705
259489,179350
259489,179341
259487,179331
259485,179322
259482,179313
259477,179304
259472,179296
259467,179288
259460,179281
259453,179274
259445,179269
259437,179264
259428,179259
259419,179256
259410,179254
259400,179252
259391,179252
259115,179252
Z" /> 
</g>
<g >
</g>
<g style="fill:#000000; fill-opacity:1.0; 
stroke:#000000; stroke-width:0; stroke-opacity:1; 
stroke-linecap:round; stroke-linejoin:round;">
<path style="fill:#000000; fill-opacity:1.0; 
stroke:#000000; stroke-width:0; stroke-opacity:1; 
stroke-linecap:round; stroke-linejoin:round;fill-rule:evenodd;"
d="M 258318,180630
258308,180632
258299,180634
258290,180637
258281,180642
258273,180647
258265,180652
258258,180659
258252,180666
258246,180674
258241,180682
258237,180691
258233,180700
258231,180709
258230,180719
258229,180728
258229,181083
258230,181092
258231,181102
258233,181111
258237,181120
258241,181129
258246,181137
258252,181145
258258,181152
258265,181159
258273,181165
258281,181169
258290,181174
258299,181177
258308,181179
258318,181181
258328,181181
258603,181181
258613,181181
258622,181179
258632,181177
258641,181174
258650,181169
258658,181165
258666,181159
258673,181152
258679,181145
258685,181137
258690,181129
258694,181120
258697,181111
258700,181102
258701,181092
258702,181083
258702,180728
258701,180719
258700,180709
258697,180700
258694,180691
258690,180682
258685,180674
258679,180666
258673,180659
258666,180652
258658,180647
258650,180642
258641,180637
258632,180634
258622,180632
258613,180630
258603,180630
258328,180630
Z" /> 
<path style="fill:#000000; fill-opacity:1.0; 
stroke:#000000; stroke-width:0; stroke-opacity:1; 
stroke-linecap:round; stroke-linejoin:round;fill-rule:evenodd;"
d="M 259105,180630
259096,180632
259086,180634
259077,180637
259069,180642
259060,180647
259053,180652
259045,180659
259039,180666
259033,180674
259028,180682
259024,180691
259021,180700
259019,180709
259017,180719
259017,180728
259017,181083
259017,181092
259019,181102
259021,181111
259024,181120
259028,181129
259033,181137
259039,181145
259045,181152
259053,181159
259060,181165
259069,181169
259077,181174
259086,181177
259096,181179
259105,181181
259115,181181
259391,181181
259400,181181
259410,181179
259419,181177
259428,181174
259437,181169
259445,181165
259453,181159
259460,181152
259467,181145
259472,181137
259477,181129
259482,181120
259485,181111
259487,181102
259489,181092
259489,181083
259489,180728
259489,180719
259487,180709
259485,180700
259482,180691
259477,180682
259472,180674
259467,180666
259460,180659
259453,180652
259445,180647
259437,180642
259428,180637
259419,180634
259410,180632
259400,180630
259391,180630
259115,180630
Z" /> 
</g>
<g >
</g>
<g style="fill:#000000; fill-opacity:1.0; 
stroke:#000000; stroke-width:0; stroke-opacity:1; 
stroke-linecap:round; stroke-linejoin:round;">
<path style="fill:#000000; fill-opacity:1.0; 
stroke:#000000; stroke-width:0; stroke-opacity:1; 
stroke-linecap:round; stroke-linejoin:round;fill-rule:evenodd;"
d="M 244972,178150
244962,178151
244953,178154
244944,178157
244935,178161
244926,178166
244919,178172
244912,178178
244905,178186
244899,178193
244894,178202
244890,178210
244887,178219
244885,178229
244883,178238
244883,178248
244883,178445
244883,178455
244885,178464
244887,178473
244890,178483
244894,178491
244899,178500
244905,178507
244912,178514
244919,178521
244926,178527
244935,178532
244944,178536
244953,178539
244962,178541
244972,178543
244981,178543
245572,178543
245581,178543
245591,178541
245600,178539
245609,178536
245618,178532
245626,178527
245634,178521
245641,178514
245648,178507
245654,178500
245659,178491
245663,178483
245666,178473
245668,178464
245670,178455
245670,178445
245670,178248
245670,178238
245668,178229
245666,178219
245663,178210
245659,178202
245654,178193
245648,178186
245641,178178
245634,178172
245626,178166
245618,178161
245609,178157
245600,178154
245591,178151
245581,178150
245572,178150
244981,178150
Z" /> 
</g>
<g >
</g>
<g style="fill:#000000; fill-opacity:1.0; 
stroke:#000000; stroke-width:0; stroke-opacity:1; 
stroke-linecap:round; stroke-linejoin:round;">
<path style="fill:#000000; fill-opacity:1.0; 
stroke:#000000; stroke-width:0; stroke-opacity:1; 
stroke-linecap:round; stroke-linejoin:round;fill-rule:evenodd;"
d="M 244972,179134
244962,179136
244953,179138
244944,179141
244935,179145
244926,179150
244919,179156
244912,179163
244905,179170
244899,179178
244894,179186
244890,179195
244887,179204
244885,179213
244883,179223
244883,179232
244883,179429
244883,179439
244885,179448
244887,179458
244890,179467
244894,179476
244899,179484
244905,179492
244912,179499
244919,179505
244926,179511
244935,179516
244944,179520
244953,179523
244962,179526
244972,179527
244981,179528
245572,179528
245581,179527
245591,179526
245600,179523
245609,179520
245618,179516
245626,179511
245634,179505
245641,179499
245648,179492
245654,179484
245659,179476
245663,179467
245666,179458
245668,179448
245670,179439
245670,179429
245670,179232
245670,179223
245668,179213
245666,179204
245663,179195
245659,179186
245654,179178
245648,179170
245641,179163
245634,179156
245626,179150
245618,179145
245609,179141
245600,179138
245591,179136
245581,179134
245572,179134
244981,179134
Z" /> 
</g>
<g >
</g>
<g style="fill:#000000; fill-opacity:1.0; 
stroke:#000000; stroke-width:0; stroke-opacity:1; 
stroke-linecap:round; stroke-linejoin:round;">
<path style="fill:#000000; fill-opacity:1.0; 
stroke:#000000; stroke-width:0; stroke-opacity:1; 
stroke-linecap:round; stroke-linejoin:round;fill-rule:evenodd;"
d="M 244972,179922
244962,179923
244953,179925
244944,179929
244935,179933
244926,179938
244919,179944
244912,179950
244905,179957
244899,179965
244894,179973
244890,179982
244887,179991
244885,180000
244883,180010
244883,180020
244883,180217
244883,180226
244885,180236
244887,180245
244890,180254
244894,180263
244899,180271
244905,180279
244912,180286
244919,180293
244926,180298
244935,180303
244944,180307
244953,180311
244962,180313
244972,180314
244981,180315
245572,180315
245581,180314
245591,180313
245600,180311
245609,180307
245618,180303
245626,180298
245634,180293
245641,180286
245648,180279
245654,180271
245659,180263
245663,180254
245666,180245
245668,180236
245670,180226
245670,180217
245670,180020
245670,180010
245668,180000
245666,179991
245663,179982
245659,179973
245654,179965
245648,179957
245641,179950
245634,179944
245626,179938
245618,179933
245609,179929
245600,179925
245591,179923
245581,179922
245572,179921
244981,179921
Z" /> 
</g>
<g >
</g>
<g style="fill:#000000; fill-opacity:1.0; 
stroke:#000000; stroke-width:0; stroke-opacity:1; 
stroke-linecap:round; stroke-linejoin:round;">
<path style="fill:#000000; fill-opacity:1.0; 
stroke:#000000; stroke-width:0; stroke-opacity:1; 
stroke-linecap:round; stroke-linejoin:round;fill-rule:evenodd;"
d="M 249873,177678
249864,177679
249854,177681
249845,177685
249836,177689
249828,177694
249820,177700
249813,177706
249807,177713
249801,177721
249796,177729
249792,177738
249789,177747
249786,177756
249785,177766
249784,177776
249784,178130
249785,178140
249786,178149
249789,178158
249792,178168
249796,178176
249801,178185
249807,178192
249813,178200
249820,178206
249828,178212
249836,178217
249845,178221
249854,178224
249864,178226
249873,178228
249883,178228
250139,178228
250148,178228
250158,178226
250167,178224
250176,178221
250185,178217
250193,178212
250201,178206
250208,178200
250215,178192
250220,178185
250225,178176
250230,178168
250233,178158
250235,178149
250237,178140
250237,178130
250237,177776
250237,177766
250235,177756
250233,177747
250230,177738
250225,177729
250220,177721
250215,177713
250208,177706
250201,177700
250193,177694
250185,177689
250176,177685
250167,177681
250158,177679
250148,177678
250139,177677
249883,177677
Z" /> 
<path style="fill:#000000; fill-opacity:1.0; 
stroke:#000000; stroke-width:0; stroke-opacity:1; 
stroke-linecap:round; stroke-linejoin:round;fill-rule:evenodd;"
d="M 249066,177678
249056,177679
249047,177681
249038,177685
249029,177689
249021,177694
249013,177700
249006,177706
249000,177713
248994,177721
248989,177729
248985,177738
248981,177747
248979,177756
248978,177766
248977,177776
248977,178130
248978,178140
248979,178149
248981,178158
248985,178168
248989,178176
248994,178185
249000,178192
249006,178200
249013,178206
249021,178212
249029,178217
249038,178221
249047,178224
249056,178226
249066,178228
249076,178228
249332,178228
249341,178228
249351,178226
249360,178224
249369,178221
249378,178217
249386,178212
249394,178206
249401,178200
249408,178192
249413,178185
249418,178176
249423,178168
249426,178158
249428,178149
249430,178140
249430,178130
249430,177776
249430,177766
249428,177756
249426,177747
249423,177738
249418,177729
249413,177721
249408,177713
249401,177706
249394,177700
249386,177694
249378,177689
249369,177685
249360,177681
249351,177679
249341,177678
249332,177677
249076,177677
Z" /> 
</g>
<g >
</g>
<g style="fill:#000000; fill-opacity:1.0; 
stroke:#000000; stroke-width:0; stroke-opacity:1; 
stroke-linecap:round; stroke-linejoin:round;">
<path style="fill:#000000; fill-opacity:1.0; 
stroke:#000000; stroke-width:0; stroke-opacity:1; 
stroke-linecap:round; stroke-linejoin:round;fill-rule:evenodd;"
d="M 260828,179311
260818,179313
260809,179315
260800,179319
260791,179323
260783,179328
260775,179333
260768,179340
260761,179347
260756,179355
260751,179363
260747,179372
260743,179381
260741,179390
260740,179400
260739,179409
260739,179675
260740,179685
260741,179694
260743,179704
260747,179713
260751,179722
260756,179730
260761,179738
260768,179745
260775,179751
260783,179757
260791,179762
260800,179766
260809,179769
260818,179772
260828,179773
260837,179774
261211,179774
261221,179773
261231,179772
261240,179769
261249,179766
261258,179762
261266,179757
261274,179751
261281,179745
261288,179738
261293,179730
261298,179722
261302,179713
261306,179704
261308,179694
261309,179685
261310,179675
261310,179409
261309,179400
261308,179390
261306,179381
261302,179372
261298,179363
261293,179355
261288,179347
261281,179340
261274,179333
261266,179328
261258,179323
261249,179319
261240,179315
261231,179313
261221,179311
261211,179311
260837,179311
Z" /> 
<path style="fill:#000000; fill-opacity:1.0; 
stroke:#000000; stroke-width:0; stroke-opacity:1; 
stroke-linecap:round; stroke-linejoin:round;fill-rule:evenodd;"
d="M 260828,178495
260818,178496
260809,178498
260800,178502
260791,178506
260783,178511
260775,178516
260768,178523
260761,178530
260756,178538
260751,178546
260747,178555
260743,178564
260741,178573
260740,178583
260739,178593
260739,178858
260740,178868
260741,178877
260743,178887
260747,178896
260751,178905
260756,178913
260761,178921
260768,178928
260775,178934
260783,178940
260791,178945
260800,178949
260809,178952
260818,178955
260828,178956
260837,178957
261211,178957
261221,178956
261231,178955
261240,178952
261249,178949
261258,178945
261266,178940
261274,178934
261281,178928
261288,178921
261293,178913
261298,178905
261302,178896
261306,178887
261308,178877
261309,178868
261310,178858
261310,178593
261309,178583
261308,178573
261306,178564
261302,178555
261298,178546
261293,178538
261288,178530
261281,178523
261274,178516
261266,178511
261258,178506
261249,178502
261240,178498
261231,178496
261221,178495
261211,178494
260837,178494
Z" /> 
</g>
<g >
</g>
<g style="fill:#000000; fill-opacity:1.0; 
stroke:#000000; stroke-width:0; stroke-opacity:1; 
stroke-linecap:round; stroke-linejoin:round;">
<path style="fill:#000000; fill-opacity:1.0; 
stroke:#000000; stroke-width:0; stroke-opacity:1; 
stroke-linecap:round; stroke-linejoin:round;fill-rule:evenodd;"
d="M 255389,178463
255383,178464
255377,178465
255372,178467
255367,178470
255362,178473
255357,178476
255353,178480
255349,178484
255345,178489
255342,178494
255340,178499
255338,178505
255337,178510
255336,178516
255336,178522
255336,178640
255336,178646
255337,178651
255338,178657
255340,178662
255342,178668
255345,178673
255349,178677
255353,178682
255357,178685
255362,178689
255367,178692
255372,178694
255377,178696
255383,178698
255389,178699
255395,178699
255965,178699
255971,178699
255977,178698
255983,178696
255988,178694
255993,178692
255998,178689
256003,178685
256007,178682
256011,178677
256015,178673
256018,178668
256020,178662
256022,178657
256023,178651
256024,178646
256024,178640
256024,178522
256024,178516
256023,178510
256022,178505
256020,178499
256018,178494
256015,178489
256011,178484
256007,178480
256003,178476
255998,178473
255993,178470
255988,178467
255983,178465
255977,178464
255971,178463
255965,178463
255395,178463
Z" /> 
<path style="fill:#000000; fill-opacity:1.0; 
stroke:#000000; stroke-width:0; stroke-opacity:1; 
stroke-linecap:round; stroke-linejoin:round;fill-rule:evenodd;"
d="M 255389,178963
255383,178964
255377,178965
255372,178967
255367,178970
255362,178973
255357,178976
255353,178980
255349,178984
255345,178989
255342,178994
255340,178999
255338,179005
255337,179010
255336,179016
255336,179022
255336,179140
255336,179146
255337,179151
255338,179157
255340,179162
255342,179168
255345,179173
255349,179177
255353,179182
255357,179185
255362,179189
255367,179192
255372,179194
255377,179196
255383,179198
255389,179199
255395,179199
255965,179199
255971,179199
255977,179198
255983,179196
255988,179194
255993,179192
255998,179189
256003,179185
256007,179182
256011,179177
256015,179173
256018,179168
256020,179162
256022,179157
256023,179151
256024,179146
256024,179140
256024,179022
256024,179016
256023,179010
256022,179005
256020,178999
256018,178994
256015,178989
256011,178984
256007,178980
256003,178976
255998,178973
255993,178970
255988,178967
255983,178965
255977,178964
255971,178963
255965,178963
255395,178963
Z" /> 
<path style="fill:#000000; fill-opacity:1.0; 
stroke:#000000; stroke-width:0; stroke-opacity:1; 
stroke-linecap:round; stroke-linejoin:round;fill-rule:evenodd;"
d="M 255389,179463
255383,179464
255377,179465
255372,179467
255367,179470
255362,179473
255357,179476
255353,179480
255349,179484
255345,179489
255342,179494
255340,179499
255338,179505
255337,179510
255336,179516
255336,179522
255336,179640
255336,179646
255337,179651
255338,179657
255340,179662
255342,179668
255345,179673
255349,179677
255353,179682
255357,179685
255362,179689
255367,179692
255372,179694
255377,179696
255383,179698
255389,179699
255395,179699
255965,179699
255971,179699
255977,179698
255983,179696
255988,179694
255993,179692
255998,179689
256003,179685
256007,179682
256011,179677
256015,179673
256018,179668
256020,179662
256022,179657
256023,179651
256024,179646
256024,179640
256024,179522
256024,179516
256023,179510
256022,179505
256020,179499
256018,179494
256015,179489
256011,179484
256007,179480
256003,179476
255998,179473
255993,179470
255988,179467
255983,179465
255977,179464
255971,179463
255965,179463
255395,179463
Z" /> 
<path style="fill:#000000; fill-opacity:1.0; 
stroke:#000000; stroke-width:0; stroke-opacity:1; 
stroke-linecap:round; stroke-linejoin:round;fill-rule:evenodd;"
d="M 255389,179963
255383,179964
255377,179965
255372,179967
255367,179970
255362,179973
255357,179976
255353,179980
255349,179984
255345,179989
255342,179994
255340,179999
255338,180005
255337,180010
255336,180016
255336,180022
255336,180140
255336,180146
255337,180151
255338,180157
255340,180162
255342,180168
255345,180173
255349,180177
255353,180182
255357,180185
255362,180189
255367,180192
255372,180194
255377,180196
255383,180198
255389,180199
255395,180199
255965,180199
255971,180199
255977,180198
255983,180196
255988,180194
255993,180192
255998,180189
256003,180185
256007,180182
256011,180177
256015,180173
256018,180168
256020,180162
256022,180157
256023,180151
256024,180146
256024,180140
256024,180022
256024,180016
256023,180010
256022,180005
256020,179999
256018,179994
256015,179989
256011,179984
256007,179980
256003,179976
255998,179973
255993,179970
255988,179967
255983,179965
255977,179964
255971,179963
255965,179963
255395,179963
Z" /> 
<path style="fill:#000000; fill-opacity:1.0; 
stroke:#000000; stroke-width:0; stroke-opacity:1; 
stroke-linecap:round; stroke-linejoin:round;fill-rule:evenodd;"
d="M 257416,179963
257411,179964
257405,179965
257400,179967
257394,179970
257389,179973
257385,179976
257380,179980
257376,179984
257373,179989
257370,179994
257368,179999
257366,180005
257364,180010
257363,180016
257363,180022
257363,180140
257363,180146
257364,180151
257366,180157
257368,180162
257370,180168
257373,180173
257376,180177
257380,180182
257385,180185
257389,180189
257394,180192
257400,180194
257405,180196
257411,180198
257416,180199
257422,180199
257993,180199
257999,180199
258005,180198
258010,180196
258016,180194
258021,180192
258026,180189
258030,180185
258035,180182
258039,180177
258042,180173
258045,180168
258048,180162
258050,180157
258051,180151
258052,180146
258052,180140
258052,180022
258052,180016
258051,180010
258050,180005
258048,179999
258045,179994
258042,179989
258039,179984
258035,179980
258030,179976
258026,179973
258021,179970
258016,179967
258010,179965
258005,179964
257999,179963
257993,179963
257422,179963
Z" /> 
<path style="fill:#000000; fill-opacity:1.0; 
stroke:#000000; stroke-width:0; stroke-opacity:1; 
stroke-linecap:round; stroke-linejoin:round;fill-rule:evenodd;"
d="M 257416,179463
257411,179464
257405,179465
257400,179467
257394,179470
257389,179473
257385,179476
257380,179480
257376,179484
257373,179489
257370,179494
257368,179499
257366,179505
257364,179510
257363,179516
257363,179522
257363,179640
257363,179646
257364,179651
257366,179657
257368,179662
257370,179668
257373,179673
257376,179677
257380,179682
257385,179685
257389,179689
257394,179692
257400,179694
257405,179696
257411,179698
257416,179699
257422,179699
257993,179699
257999,179699
258005,179698
258010,179696
258016,179694
258021,179692
258026,179689
258030,179685
258035,179682
258039,179677
258042,179673
258045,179668
258048,179662
258050,179657
258051,179651
258052,179646
258052,179640
258052,179522
258052,179516
258051,179510
258050,179505
258048,179499
258045,179494
258042,179489
258039,179484
258035,179480
258030,179476
258026,179473
258021,179470
258016,179467
258010,179465
258005,179464
257999,179463
257993,179463
257422,179463
Z" /> 
<path style="fill:#000000; fill-opacity:1.0; 
stroke:#000000; stroke-width:0; stroke-opacity:1; 
stroke-linecap:round; stroke-linejoin:round;fill-rule:evenodd;"
d="M 257416,178963
257411,178964
257405,178965
257400,178967
257394,178970
257389,178973
257385,178976
257380,178980
257376,178984
257373,178989
257370,178994
257368,178999
257366,179005
257364,179010
257363,179016
257363,179022
257363,179140
257363,179146
257364,179151
257366,179157
257368,179162
257370,179168
257373,179173
257376,179177
257380,179182
257385,179185
257389,179189
257394,179192
257400,179194
257405,179196
257411,179198
257416,179199
257422,179199
257993,179199
257999,179199
258005,179198
258010,179196
258016,179194
258021,179192
258026,179189
258030,179185
258035,179182
258039,179177
258042,179173
258045,179168
258048,179162
258050,179157
258051,179151
258052,179146
258052,179140
258052,179022
258052,179016
258051,179010
258050,179005
258048,178999
258045,178994
258042,178989
258039,178984
258035,178980
258030,178976
258026,178973
258021,178970
258016,178967
258010,178965
258005,178964
257999,178963
257993,178963
257422,178963
Z" /> 
<path style="fill:#000000; fill-opacity:1.0; 
stroke:#000000; stroke-width:0; stroke-opacity:1; 
stroke-linecap:round; stroke-linejoin:round;fill-rule:evenodd;"
d="M 257416,178463
257411,178464
257405,178465
257400,178467
257394,178470
257389,178473
257385,178476
257380,178480
257376,178484
257373,178489
257370,178494
257368,178499
257366,178505
257364,178510
257363,178516
257363,178522
257363,178640
257363,178646
257364,178651
257366,178657
257368,178662
257370,178668
257373,178673
257376,178677
257380,178682
257385,178685
257389,178689
257394,178692
257400,178694
257405,178696
257411,178698
257416,178699
257422,178699
257993,178699
257999,178699
258005,178698
258010,178696
258016,178694
258021,178692
258026,178689
258030,178685
258035,178682
258039,178677
258042,178673
258045,178668
258048,178662
258050,178657
258051,178651
258052,178646
258052,178640
258052,178522
258052,178516
258051,178510
258050,178505
258048,178499
258045,178494
258042,178489
258039,178484
258035,178480
258030,178476
258026,178473
258021,178470
258016,178467
258010,178465
258005,178464
257999,178463
257993,178463
257422,178463
Z" /> 
</g>
<g >
</g>
<g style="fill:#000000; fill-opacity:1.0; 
stroke:#000000; stroke-width:0; stroke-opacity:1; 
stroke-linecap:round; stroke-linejoin:round;">
<circle cx="262009" cy="179937" r="334.646" /> 
<path style="fill:#000000; fill-opacity:1.0; 
stroke:#000000; stroke-width:0; stroke-opacity:1; 
stroke-linecap:round; stroke-linejoin:round;fill-rule:evenodd;"
d="M 261674,178602
261674,179272
262343,179272
262343,178602
Z" /> 
</g>
<g >
</g>
<g style="fill:#000000; fill-opacity:1.0; 
stroke:#000000; stroke-width:0; stroke-opacity:1; 
stroke-linecap:round; stroke-linejoin:round;">
<circle cx="247245" cy="179134" r="236.22" /> 
</g>
<g style="fill:#000000; fill-opacity:1.0; 
stroke:#000000; stroke-width:39.3701; stroke-opacity:1; 
stroke-linecap:round; stroke-linejoin:round;">
</g>
<g style="fill:#000000; fill-opacity:1.0; 
stroke:#000000; stroke-width:0; stroke-opacity:1; 
stroke-linecap:round; stroke-linejoin:round;">
<path style="fill:#000000; fill-opacity:1.0; 
stroke:#000000; stroke-width:0; stroke-opacity:1; 
stroke-linecap:round; stroke-linejoin:round;fill-rule:evenodd;"
d="M 247009,180157
247481,180157
247481,179685
247009,179685
Z" /> 
</g>
<g >
</g>
<g style="fill:#000000; fill-opacity:1.0; 
stroke:#000000; stroke-width:0; stroke-opacity:1; 
stroke-linecap:round; stroke-linejoin:round;">
<path style="fill:#000000; fill-opacity:1.0; 
stroke:#000000; stroke-width:0; stroke-opacity:1; 
stroke-linecap:round; stroke-linejoin:round;fill-rule:evenodd;"
d="M 249873,179833
249864,179835
249854,179837
249845,179840
249836,179844
249828,179849
249820,179855
249813,179862
249807,179869
249801,179876
249796,179885
249792,179893
249789,179903
249786,179912
249785,179921
249784,179931
249784,180305
249785,180315
249786,180324
249789,180334
249792,180343
249796,180352
249801,180360
249807,180368
249813,180375
249820,180381
249828,180387
249836,180392
249845,180396
249854,180399
249864,180402
249873,180403
249883,180404
250149,180404
250158,180403
250168,180402
250177,180399
250186,180396
250195,180392
250203,180387
250211,180381
250218,180375
250225,180368
250230,180360
250235,180352
250239,180343
250243,180334
250245,180324
250246,180315
250247,180305
250247,179931
250246,179921
250245,179912
250243,179903
250239,179893
250235,179885
250230,179876
250225,179869
250218,179862
250211,179855
250203,179849
250195,179844
250186,179840
250177,179837
250168,179835
250158,179833
250149,179833
249883,179833
Z" /> 
<path style="fill:#000000; fill-opacity:1.0; 
stroke:#000000; stroke-width:0; stroke-opacity:1; 
stroke-linecap:round; stroke-linejoin:round;fill-rule:evenodd;"
d="M 249056,179833
249047,179835
249037,179837
249028,179840
249019,179844
249011,179849
249003,179855
248996,179862
248990,179869
248984,179876
248979,179885
248975,179893
248972,179903
248969,179912
248968,179921
248967,179931
248967,180305
248968,180315
248969,180324
248972,180334
248975,180343
248979,180352
248984,180360
248990,180368
248996,180375
249003,180381
249011,180387
249019,180392
249028,180396
249037,180399
249047,180402
249056,180403
249066,180404
249332,180404
249341,180403
249351,180402
249360,180399
249369,180396
249378,180392
249386,180387
249394,180381
249401,180375
249408,180368
249413,180360
249418,180352
249423,180343
249426,180334
249428,180324
249430,180315
249430,180305
249430,179931
249430,179921
249428,179912
249426,179903
249423,179893
249418,179885
249413,179876
249408,179869
249401,179862
249394,179855
249386,179849
249378,179844
249369,179840
249360,179837
249351,179835
249341,179833
249332,179833
249066,179833
Z" /> 
</g>
<g >
</g>
<g style="fill:#000000; fill-opacity:1.0; 
stroke:#000000; stroke-width:0; stroke-opacity:1; 
stroke-linecap:round; stroke-linejoin:round;">
<path style="fill:#000000; fill-opacity:1.0; 
stroke:#000000; stroke-width:0; stroke-opacity:1; 
stroke-linecap:round; stroke-linejoin:round;fill-rule:evenodd;"
d="M 256172,177668
256163,177669
256153,177672
256144,177675
256136,177679
256127,177684
256120,177690
256112,177696
256106,177703
256100,177711
256095,177719
256091,177728
256088,177737
256085,177747
256084,177756
256084,177766
256084,178140
256084,178149
256085,178159
256088,178168
256091,178177
256095,178186
256100,178194
256106,178202
256112,178209
256120,178216
256127,178222
256136,178227
256144,178231
256153,178234
256163,178236
256172,178238
256182,178238
256448,178238
256457,178238
256467,178236
256476,178234
256485,178231
256494,178227
256502,178222
256510,178216
256517,178209
256524,178202
256530,178194
256535,178186
256539,178177
256542,178168
256544,178159
256546,178149
256546,178140
256546,177766
256546,177756
256544,177747
256542,177737
256539,177728
256535,177719
256530,177711
256524,177703
256517,177696
256510,177690
256502,177684
256494,177679
256485,177675
256476,177672
256467,177669
256457,177668
256448,177667
256182,177667
Z" /> 
<path style="fill:#000000; fill-opacity:1.0; 
stroke:#000000; stroke-width:0; stroke-opacity:1; 
stroke-linecap:round; stroke-linejoin:round;fill-rule:evenodd;"
d="M 255355,177668
255346,177669
255336,177672
255327,177675
255319,177679
255310,177684
255303,177690
255295,177696
255289,177703
255283,177711
255278,177719
255274,177728
255271,177737
255269,177747
255267,177756
255267,177766
255267,178140
255267,178149
255269,178159
255271,178168
255274,178177
255278,178186
255283,178194
255289,178202
255295,178209
255303,178216
255310,178222
255319,178227
255327,178231
255336,178234
255346,178236
255355,178238
255365,178238
255631,178238
255640,178238
255650,178236
255659,178234
255668,178231
255677,178227
255685,178222
255693,178216
255700,178209
255707,178202
255713,178194
255718,178186
255722,178177
255725,178168
255727,178159
255729,178149
255729,178140
255729,177766
255729,177756
255727,177747
255725,177737
255722,177728
255718,177719
255713,177711
255707,177703
255700,177696
255693,177690
255685,177684
255677,177679
255668,177675
255659,177672
255650,177669
255640,177668
255631,177667
255365,177667
Z" /> 
</g>
<g >
</g>
<g style="fill:#000000; fill-opacity:1.0; 
stroke:#000000; stroke-width:0; stroke-opacity:1; 
stroke-linecap:round; stroke-linejoin:round;">
<path style="fill:#000000; fill-opacity:1.0; 
stroke:#000000; stroke-width:0; stroke-opacity:1; 
stroke-linecap:round; stroke-linejoin:round;fill-rule:evenodd;"
d="M 260715,180227
260705,180228
260696,180231
260687,180234
260678,180238
260670,180243
260662,180249
260655,180255
260648,180262
260642,180270
260637,180278
260633,180287
260630,180296
260628,180306
260626,180315
260626,180325
260626,180699
260626,180708
260628,180718
260630,180727
260633,180736
260637,180745
260642,180754
260648,180761
260655,180768
260662,180775
260670,180781
260678,180786
260687,180790
260696,180793
260705,180795
260715,180797
260724,180797
260990,180797
261000,180797
261009,180795
261019,180793
261028,180790
261036,180786
261045,180781
261052,180775
261060,180768
261066,180761
261072,180754
261077,180745
261081,180736
261084,180727
261087,180718
261088,180708
261088,180699
261088,180325
261088,180315
261087,180306
261084,180296
261081,180287
261077,180278
261072,180270
261066,180262
261060,180255
261052,180249
261045,180243
261036,180238
261028,180234
261019,180231
261009,180228
261000,180227
260990,180226
260724,180226
Z" /> 
<path style="fill:#000000; fill-opacity:1.0; 
stroke:#000000; stroke-width:0; stroke-opacity:1; 
stroke-linecap:round; stroke-linejoin:round;fill-rule:evenodd;"
d="M 259898,180227
259888,180228
259879,180231
259870,180234
259861,180238
259853,180243
259845,180249
259838,180255
259831,180262
259826,180270
259821,180278
259816,180287
259813,180296
259811,180306
259809,180315
259809,180325
259809,180699
259809,180708
259811,180718
259813,180727
259816,180736
259821,180745
259826,180754
259831,180761
259838,180768
259845,180775
259853,180781
259861,180786
259870,180790
259879,180793
259888,180795
259898,180797
259907,180797
260173,180797
260183,180797
260192,180795
260202,180793
260211,180790
260220,180786
260228,180781
260236,180775
260243,180768
260249,180761
260255,180754
260260,180745
260264,180736
260267,180727
260270,180718
260271,180708
260272,180699
260272,180325
260271,180315
260270,180306
260267,180296
260264,180287
260260,180278
260255,180270
260249,180262
260243,180255
260236,180249
260228,180243
260220,180238
260211,180234
260202,180231
260192,180228
260183,180227
260173,180226
259907,180226
Z" /> 
</g>
<g >
</g>
<g style="fill:#000000; fill-opacity:1.0; 
stroke:#000000; stroke-width:0; stroke-opacity:1; 
stroke-linecap:round; stroke-linejoin:round;">
<circle cx="261024" cy="177756" r="295.276" /> 
</g>
<g style="fill:#000000; fill-opacity:1.0; 
stroke:#000000; stroke-width:39.3701; stroke-opacity:1; 
stroke-linecap:round; stroke-linejoin:round;">
</g>
<g style="fill:#000000; fill-opacity:1.0; 
stroke:#000000; stroke-width:0; stroke-opacity:1; 
stroke-linecap:round; stroke-linejoin:round;">
<circle cx="258662" cy="180118" r="295.276" /> 
</g>
<g style="fill:#000000; fill-opacity:1.0; 
stroke:#000000; stroke-width:39.3701; stroke-opacity:1; 
stroke-linecap:round; stroke-linejoin:round;">
</g>
<g style="fill:#000000; fill-opacity:1.0; 
stroke:#000000; stroke-width:0; stroke-opacity:1; 
stroke-linecap:round; stroke-linejoin:round;">
<circle cx="254725" cy="178346" r="295.276" /> 
</g>
<g style="fill:#000000; fill-opacity:1.0; 
stroke:#000000; stroke-width:39.3701; stroke-opacity:1; 
stroke-linecap:round; stroke-linejoin:round;">
</g>
<g style="fill:#000000; fill-opacity:1.0; 
stroke:#000000; stroke-width:0; stroke-opacity:1; 
stroke-linecap:round; stroke-linejoin:round;">
<circle cx="253652" cy="177549" r="295.276" /> 
</g>
<g style="fill:#000000; fill-opacity:1.0; 
stroke:#000000; stroke-width:39.3701; stroke-opacity:1; 
stroke-linecap:round; stroke-linejoin:round;">
</g>
<g style="fill:#000000; fill-opacity:1.0; 
stroke:#000000; stroke-width:0; stroke-opacity:1; 
stroke-linecap:round; stroke-linejoin:round;">
<circle cx="258267" cy="180955" r="295.276" /> 
</g>
<g style="fill:#000000; fill-opacity:1.0; 
stroke:#000000; stroke-width:39.3701; stroke-opacity:1; 
stroke-linecap:round; stroke-linejoin:round;">
</g>
<g style="fill:#000000; fill-opacity:1.0; 
stroke:#000000; stroke-width:0; stroke-opacity:1; 
stroke-linecap:round; stroke-linejoin:round;">
<circle cx="248229" cy="180118" r="295.276" /> 
</g>
<g style="fill:#000000; fill-opacity:1.0; 
stroke:#000000; stroke-width:39.3701; stroke-opacity:1; 
stroke-linecap:round; stroke-linejoin:round;">
</g>
<g style="fill:#000000; fill-opacity:1.0; 
stroke:#000000; stroke-width:0; stroke-opacity:1; 
stroke-linecap:round; stroke-linejoin:round;">
<circle cx="254332" cy="179134" r="295.276" /> 
</g>
<g style="fill:#000000; fill-opacity:1.0; 
stroke:#000000; stroke-width:39.3701; stroke-opacity:1; 
stroke-linecap:round; stroke-linejoin:round;">
</g>
<g style="fill:#000000; fill-opacity:1.0; 
stroke:#000000; stroke-width:0; stroke-opacity:1; 
stroke-linecap:round; stroke-linejoin:round;">
<circle cx="250985" cy="180315" r="295.276" /> 
</g>
<g style="fill:#000000; fill-opacity:1.0; 
stroke:#000000; stroke-width:39.3701; stroke-opacity:1; 
stroke-linecap:round; stroke-linejoin:round;">
</g>
<g style="fill:#000000; fill-opacity:1.0; 
stroke:#000000; stroke-width:0; stroke-opacity:1; 
stroke-linecap:round; stroke-linejoin:round;">
<circle cx="253347" cy="180315" r="295.276" /> 
</g>
<g style="fill:#000000; fill-opacity:1.0; 
stroke:#000000; stroke-width:39.3701; stroke-opacity:1; 
stroke-linecap:round; stroke-linejoin:round;">
</g>
<g >
</g>
<g style="fill:#000000; fill-opacity:1.0; 
stroke:#000000; stroke-width:39.3701; stroke-opacity:1; 
stroke-linecap:round; stroke-linejoin:round;">
</g>
<g style="fill:#000000; fill-opacity:1.0; 
stroke:#000000; stroke-width:393.701; stroke-opacity:1; 
stroke-linecap:round; stroke-linejoin:round;">
</g>
<g style="fill:#000000; fill-opacity:0.0; 
stroke:#000000; stroke-width:393.701; stroke-opacity:1; 
stroke-linecap:round; stroke-linejoin:round;">
<path d="M262008 178937
L262008 178740
" />
<path d="M261993 178725
L261024 178725
" />
<path d="M262008 178740
L261993 178725
" />
<path d="M261024 178725
L261024 177755
" />
<path d="M252559 180118
L252559 179488
" />
<path d="M249198 179345
L249213 179330
" />
<path d="M249198 180118
L249198 179345
" />
<path d="M252756 180905
L248805 180905
" />
</g>
<g style="fill:#000000; fill-opacity:0.0; 
stroke:#000000; stroke-width:196.85; stroke-opacity:1; 
stroke-linecap:round; stroke-linejoin:round;">
<path d="M257707 180080
L257321 180080
" />
</g>
<g style="fill:#000000; fill-opacity:0.0; 
stroke:#000000; stroke-width:393.701; stroke-opacity:1; 
stroke-linecap:round; stroke-linejoin:round;">
<path d="M252559 180708
L252559 180118
" />
<path d="M252756 180905
L252559 180708
" />
<path d="M249213 180132
L249198 180118
" />
<path d="M249213 180905
L249213 180132
" />
<path d="M248805 180905
L249213 180905
" />
</g>
<g style="fill:#000000; fill-opacity:0.0; 
stroke:#000000; stroke-width:196.85; stroke-opacity:1; 
stroke-linecap:round; stroke-linejoin:round;">
<path d="M257321 180080
L257087 180314
" />
</g>
<g style="fill:#000000; fill-opacity:0.0; 
stroke:#000000; stroke-width:393.701; stroke-opacity:1; 
stroke-linecap:round; stroke-linejoin:round;">
<path d="M246260 180118
L246457 179921
" />
<path d="M245276 180118
L246260 180118
" />
<path d="M252756 180905
L252953 181102
" />
<path d="M255882 181102
L256300 181102
" />
<path d="M252953 181102
L255882 181102
" />
<path d="M256300 181102
L256300 181102
" />
<path d="M257087 180314
L256300 181102
" />
</g>
<g style="fill:#000000; fill-opacity:0.0; 
stroke:#000000; stroke-width:196.85; stroke-opacity:1; 
stroke-linecap:round; stroke-linejoin:round;">
<path d="M258624 180080
L258662 180118
" />
<path d="M257707 180080
L258624 180080
" />
</g>
<g style="fill:#000000; fill-opacity:0.0; 
stroke:#000000; stroke-width:393.701; stroke-opacity:1; 
stroke-linecap:round; stroke-linejoin:round;">
<path d="M247835 180905
L248805 180905
" />
<path d="M246831 180905
L247835 180905
" />
<path d="M246457 180531
L246831 180905
" />
<path d="M246457 179921
L246457 180531
" />
</g>
<g style="fill:#000000; fill-opacity:0.0; 
stroke:#000000; stroke-width:196.85; stroke-opacity:1; 
stroke-linecap:round; stroke-linejoin:round;">
<path d="M257772 178515
L257707 178580
" />
<path d="M257707 178120
L257772 178055
" />
<path d="M257707 178580
L257707 178120
" />
</g>
<g style="fill:#000000; fill-opacity:0.0; 
stroke:#000000; stroke-width:393.701; stroke-opacity:1; 
stroke-linecap:round; stroke-linejoin:round;">
<path d="M259843 177559
L258268 177559
" />
<path d="M258268 177559
L257772 178055
" />
<path d="M260040 177755
L259843 177559
" />
<path d="M260040 178346
L260040 177755
" />
<path d="M256890 177952
L256314 177952
" />
<path d="M257481 177952
L256890 177952
" />
<path d="M257583 178055
L257481 177952
" />
<path d="M257772 178055
L257583 178055
" />
<path d="M255497 177952
L255320 177775
" />
<path d="M255320 177775
L254311 177775
" />
<path d="M254311 177775
L253544 178543
" />
<path d="M250010 179320
L250000 179330
" />
<path d="M250010 177952
L250010 179320
" />
<path d="M250015 179345
L250000 179330
" />
<path d="M250015 180118
L250015 179345
" />
<path d="M252559 177952
L252559 178346
" />
</g>
<g style="fill:#000000; fill-opacity:0.0; 
stroke:#000000; stroke-width:196.85; stroke-opacity:1; 
stroke-linecap:round; stroke-linejoin:round;">
<path d="M252559 178346
L252559 178917
" />
</g>
<g style="fill:#000000; fill-opacity:0.0; 
stroke:#000000; stroke-width:393.701; stroke-opacity:1; 
stroke-linecap:round; stroke-linejoin:round;">
<path d="M252559 178346
L252559 178818
" />
<path d="M252559 177952
L253150 177952
" />
<path d="M253150 177952
L253652 177450
" />
<path d="M252559 178740
L252559 177952
" />
</g>
<g style="fill:#000000; fill-opacity:0.0; 
stroke:#000000; stroke-width:196.85; stroke-opacity:1; 
stroke-linecap:round; stroke-linejoin:round;">
<path d="M255680 178580
L254959 178580
" />
<path d="M254959 178580
L254725 178346
" />
</g>
<g style="fill:#000000; fill-opacity:0.0; 
stroke:#000000; stroke-width:393.701; stroke-opacity:1; 
stroke-linecap:round; stroke-linejoin:round;">
<path d="M252756 177952
L253150 177952
" />
<path d="M252559 177952
L252756 177952
" />
<path d="M250010 177952
L252756 177952
" />
<path d="M253652 177450
L253652 177549
" />
</g>
<g style="fill:#000000; fill-opacity:0.0; 
stroke:#000000; stroke-width:196.85; stroke-opacity:1; 
stroke-linecap:round; stroke-linejoin:round;">
<path d="M253741 177362
L253652 177450
" />
</g>
<g style="fill:#000000; fill-opacity:0.0; 
stroke:#000000; stroke-width:393.701; stroke-opacity:1; 
stroke-linecap:round; stroke-linejoin:round;">
<path d="M258316 180905
L258266 180955
" />
<path d="M258465 180905
L258316 180905
" />
<path d="M246457 179133
L247244 179133
" />
<path d="M245670 179133
L246457 179133
" />
<path d="M245473 179330
L245670 179133
" />
<path d="M245276 179330
L245473 179330
" />
</g>
<g style="fill:#000000; fill-opacity:0.0; 
stroke:#000000; stroke-width:196.85; stroke-opacity:1; 
stroke-linecap:round; stroke-linejoin:round;">
<path d="M254778 179080
L254725 179133
" />
<path d="M255680 179080
L254778 179080
" />
</g>
<g style="fill:#000000; fill-opacity:0.0; 
stroke:#000000; stroke-width:393.701; stroke-opacity:1; 
stroke-linecap:round; stroke-linejoin:round;">
<path d="M248032 179921
L248229 180118
" />
<path d="M247244 179921
L248032 179921
" />
<path d="M254725 179133
L254331 179133
" />
<path d="M254331 179133
L254331 179133
" />
</g>
<g style="fill:#000000; fill-opacity:0.0; 
stroke:#000000; stroke-width:196.85; stroke-opacity:1; 
stroke-linecap:round; stroke-linejoin:round;">
<path d="M258412 179080
L257707 179080
" />
</g>
<g style="fill:#000000; fill-opacity:0.0; 
stroke:#000000; stroke-width:393.701; stroke-opacity:1; 
stroke-linecap:round; stroke-linejoin:round;">
<path d="M258518 179080
L259252 178346
" />
<path d="M258412 179080
L258518 179080
" />
<path d="M259252 179330
L259252 179527
" />
<path d="M259002 179080
L259252 179330
" />
<path d="M258412 179080
L259002 179080
" />
</g>
<g style="fill:#000000; fill-opacity:0.0; 
stroke:#000000; stroke-width:196.85; stroke-opacity:1; 
stroke-linecap:round; stroke-linejoin:round;">
<path d="M255680 179580
L255262 179580
" />
<path d="M254922 179921
L254725 179921
" />
<path d="M255262 179580
L254922 179921
" />
</g>
<g style="fill:#000000; fill-opacity:0.0; 
stroke:#000000; stroke-width:393.701; stroke-opacity:1; 
stroke-linecap:round; stroke-linejoin:round;">
<path d="M253544 179330
L253601 179330
" />
<path d="M253601 179330
L254192 179921
" />
<path d="M254192 179921
L254725 179921
" />
<path d="M262008 179937
L261040 179937
" />
<path d="M261040 179937
L261024 179921
" />
<path d="M261024 179542
L261024 179921
" />
<path d="M260857 180511
L260857 181210
" />
<path d="M260857 181210
L259252 181210
" />
<path d="M259252 181210
L259252 180905
" />
<path d="M261024 180344
L260857 180511
" />
<path d="M261024 179921
L261024 180344
" />
<path d="M260040 179527
L260040 180511
" />
<path d="M245670 177952
L249203 177952
" />
<path d="M245276 178346
L245670 177952
" />
<path d="M251772 179330
L251772 178937
" />
<path d="M251772 180118
L251772 179330
" />
<path d="M251181 180118
L250985 180314
" />
<path d="M251772 180118
L251181 180118
" />
<path d="M256443 180080
L256943 179580
" />
<path d="M256140 180080
L256443 180080
" />
</g>
<g style="fill:#000000; fill-opacity:0.0; 
stroke:#000000; stroke-width:196.85; stroke-opacity:1; 
stroke-linecap:round; stroke-linejoin:round;">
<path d="M257707 179580
L256943 179580
" />
<path d="M256140 180080
L255680 180080
" />
</g>
<g style="fill:#000000; fill-opacity:0.0; 
stroke:#000000; stroke-width:393.701; stroke-opacity:1; 
stroke-linecap:round; stroke-linejoin:round;">
<path d="M251772 179330
L251772 178740
" />
</g>
<g style="fill:#000000; fill-opacity:0.0; 
stroke:#000000; stroke-width:196.85; stroke-opacity:1; 
stroke-linecap:round; stroke-linejoin:round;">
<path d="M253642 180610
L253347 180314
" />
<path d="M255680 180080
L255150 180610
" />
<path d="M255150 180610
L253642 180610
" />
</g>
<g >
</g>
<g style="fill:#000000; fill-opacity:0.0; 
stroke:#000000; stroke-width:196.85; stroke-opacity:1; 
stroke-linecap:round; stroke-linejoin:round;">
<g >
</g>
<g style="fill:#000000; fill-opacity:1.0; 
stroke:#000000; stroke-width:100; stroke-opacity:1; 
stroke-linecap:round; stroke-linejoin:round;">
<path style="fill:#000000; fill-opacity:1.0; 
stroke:#000000; stroke-width:100; stroke-opacity:1; 
stroke-linecap:round; stroke-linejoin:round;fill-rule:evenodd;"
d="M 245920,180168
245858,180168
245920,180231
245921,180315
245917,180364
245902,180411
245879,180455
245848,180493
245810,180524
245766,180547
245719,180561
245670,180566
245389,180565
245326,180502
245326,180168
245226,180168
245226,180502
245164,180565
244933,180566
244933,181236
252866,181236
252726,180956
246950,180956
246940,180955
246931,180952
246918,180945
246248,180408
246182,180409
246133,180404
246086,180390
246042,180366
246004,180335
245973,180297
245950,180254
245936,180206
245932,180168
245920,180168
Z" /> 
</g>
</g>
</g>
<g style="fill:#FFFFFF; fill-opacity:1.0; 
stroke:#FFFFFF; stroke-width:100; stroke-opacity:1; 
stroke-linecap:round; stroke-linejoin:round;">
</g>
<g style="fill:#FFFFFF; fill-opacity:1.0; 
stroke:#FFFFFF; stroke-width:0; stroke-opacity:1; 
stroke-linecap:round; stroke-linejoin:round;">
<circle cx="261024" cy="177756" r="177.165" /> 
</g>
<g style="fill:#FFFFFF; fill-opacity:1.0; 
stroke:#FFFFFF; stroke-width:39.3701; stroke-opacity:1; 
stroke-linecap:round; stroke-linejoin:round;">
</g>
<g style="fill:#FFFFFF; fill-opacity:1.0; 
stroke:#FFFFFF; stroke-width:0; stroke-opacity:1; 
stroke-linecap:round; stroke-linejoin:round;">
<circle cx="258662" cy="180118" r="177.165" /> 
</g>
<g style="fill:#FFFFFF; fill-opacity:1.0; 
stroke:#FFFFFF; stroke-width:39.3701; stroke-opacity:1; 
stroke-linecap:round; stroke-linejoin:round;">
</g>
<g style="fill:#FFFFFF; fill-opacity:1.0; 
stroke:#FFFFFF; stroke-width:0; stroke-opacity:1; 
stroke-linecap:round; stroke-linejoin:round;">
<circle cx="254725" cy="178346" r="177.165" /> 
</g>
<g style="fill:#FFFFFF; fill-opacity:1.0; 
stroke:#FFFFFF; stroke-width:39.3701; stroke-opacity:1; 
stroke-linecap:round; stroke-linejoin:round;">
</g>
<g style="fill:#FFFFFF; fill-opacity:1.0; 
stroke:#FFFFFF; stroke-width:0; stroke-opacity:1; 
stroke-linecap:round; stroke-linejoin:round;">
<circle cx="253652" cy="177549" r="177.165" /> 
</g>
<g style="fill:#FFFFFF; fill-opacity:1.0; 
stroke:#FFFFFF; stroke-width:39.3701; stroke-opacity:1; 
stroke-linecap:round; stroke-linejoin:round;">
</g>
<g style="fill:#FFFFFF; fill-opacity:1.0; 
stroke:#FFFFFF; stroke-width:0; stroke-opacity:1; 
stroke-linecap:round; stroke-linejoin:round;">
<circle cx="258267" cy="180955" r="177.165" /> 
</g>
<g style="fill:#FFFFFF; fill-opacity:1.0; 
stroke:#FFFFFF; stroke-width:39.3701; stroke-opacity:1; 
stroke-linecap:round; stroke-linejoin:round;">
</g>
<g style="fill:#FFFFFF; fill-opacity:1.0; 
stroke:#FFFFFF; stroke-width:0; stroke-opacity:1; 
stroke-linecap:round; stroke-linejoin:round;">
<circle cx="248229" cy="180118" r="177.165" /> 
</g>
<g style="fill:#FFFFFF; fill-opacity:1.0; 
stroke:#FFFFFF; stroke-width:39.3701; stroke-opacity:1; 
stroke-linecap:round; stroke-linejoin:round;">
</g>
<g style="fill:#FFFFFF; fill-opacity:1.0; 
stroke:#FFFFFF; stroke-width:0; stroke-opacity:1; 
stroke-linecap:round; stroke-linejoin:round;">
<circle cx="254332" cy="179134" r="177.165" /> 
</g>
<g style="fill:#FFFFFF; fill-opacity:1.0; 
stroke:#FFFFFF; stroke-width:39.3701; stroke-opacity:1; 
stroke-linecap:round; stroke-linejoin:round;">
</g>
<g style="fill:#FFFFFF; fill-opacity:1.0; 
stroke:#FFFFFF; stroke-width:0; stroke-opacity:1; 
stroke-linecap:round; stroke-linejoin:round;">
<circle cx="250985" cy="180315" r="177.165" /> 
</g>
<g style="fill:#FFFFFF; fill-opacity:1.0; 
stroke:#FFFFFF; stroke-width:39.3701; stroke-opacity:1; 
stroke-linecap:round; stroke-linejoin:round;">
</g>
<g style="fill:#FFFFFF; fill-opacity:1.0; 
stroke:#FFFFFF; stroke-width:0; stroke-opacity:1; 
stroke-linecap:round; stroke-linejoin:round;">
<circle cx="253347" cy="180315" r="177.165" /> 
</g>
<g style="fill:#FFFFFF; fill-opacity:1.0; 
stroke:#FFFFFF; stroke-width:39.3701; stroke-opacity:1; 
stroke-linecap:round; stroke-linejoin:round;">
</g>
<g style="fill:#FFFFFF; fill-opacity:1.0; 
stroke:#FFFFFF; stroke-width:0; stroke-opacity:1; 
stroke-linecap:round; stroke-linejoin:round;">
<circle cx="249213" cy="179331" r="118.11" /> 
</g>
<g style="fill:#FFFFFF; fill-opacity:1.0; 
stroke:#FFFFFF; stroke-width:39.3701; stroke-opacity:1; 
stroke-linecap:round; stroke-linejoin:round;">
</g>
<g style="fill:#FFFFFF; fill-opacity:1.0; 
stroke:#FFFFFF; stroke-width:0; stroke-opacity:1; 
stroke-linecap:round; stroke-linejoin:round;">
<circle cx="250001" cy="179331" r="118.11" /> 
</g>
<g style="fill:#FFFFFF; fill-opacity:1.0; 
stroke:#FFFFFF; stroke-width:39.3701; stroke-opacity:1; 
stroke-linecap:round; stroke-linejoin:round;">
</g>
<g style="fill:#FFFFFF; fill-opacity:1.0; 
stroke:#FFFFFF; stroke-width:0; stroke-opacity:1; 
stroke-linecap:round; stroke-linejoin:round;">
<circle cx="252560" cy="179331" r="118.11" /> 
</g>
<g style="fill:#FFFFFF; fill-opacity:1.0; 
stroke:#FFFFFF; stroke-width:39.3701; stroke-opacity:1; 
stroke-linecap:round; stroke-linejoin:round;">
</g>
<g style="fill:#FFFFFF; fill-opacity:1.0; 
stroke:#FFFFFF; stroke-width:0; stroke-opacity:1; 
stroke-linecap:round; stroke-linejoin:round;">
<circle cx="251773" cy="179331" r="118.11" /> 
</g>
<g style="fill:#FFFFFF; fill-opacity:1.0; 
stroke:#FFFFFF; stroke-width:39.3701; stroke-opacity:1; 
stroke-linecap:round; stroke-linejoin:round;">
</g>
<g style="fill:#FFFFFF; fill-opacity:1.0; 
stroke:#FFFFFF; stroke-width:0; stroke-opacity:1; 
stroke-linecap:round; stroke-linejoin:round;">
<circle cx="262009" cy="179937" r="196.85" /> 
</g>
<g style="fill:#FFFFFF; fill-opacity:1.0; 
stroke:#FFFFFF; stroke-width:39.3701; stroke-opacity:1; 
stroke-linecap:round; stroke-linejoin:round;">
</g>
<g style="fill:#FFFFFF; fill-opacity:1.0; 
stroke:#FFFFFF; stroke-width:0; stroke-opacity:1; 
stroke-linecap:round; stroke-linejoin:round;">
<circle cx="262009" cy="178937" r="196.85" /> 
</g>
<g style="fill:#FFFFFF; fill-opacity:1.0; 
stroke:#FFFFFF; stroke-width:39.3701; stroke-opacity:1; 
stroke-linecap:round; stroke-linejoin:round;">
</g>
<g style="fill:#FFFFFF; fill-opacity:1.0; 
stroke:#FFFFFF; stroke-width:0; stroke-opacity:1; 
stroke-linecap:round; stroke-linejoin:round;">
<circle cx="247245" cy="179134" r="118.11" /> 
</g>
<g style="fill:#FFFFFF; fill-opacity:1.0; 
stroke:#FFFFFF; stroke-width:39.3701; stroke-opacity:1; 
stroke-linecap:round; stroke-linejoin:round;">
</g>
<g style="fill:#FFFFFF; fill-opacity:1.0; 
stroke:#FFFFFF; stroke-width:0; stroke-opacity:1; 
stroke-linecap:round; stroke-linejoin:round;">
<circle cx="247245" cy="179921" r="118.11" /> 
</g>
<g style="fill:#FFFFFF; fill-opacity:1.0; 
stroke:#FFFFFF; stroke-width:39.3701; stroke-opacity:1; 
stroke-linecap:round; stroke-linejoin:round;">
</g>
<g style="fill:#000000; fill-opacity:1.0; 
stroke:#000000; stroke-width:39.3701; stroke-opacity:1; 
stroke-linecap:round; stroke-linejoin:round;">
</g> 
</svg>
