<?xml version="1.0" standalone="no"?>
 <!DOCTYPE svg PUBLIC "-//W3C//DTD SVG 1.1//EN" 
 "http://www.w3.org/Graphics/SVG/1.1/DTD/svg11.dtd"> 
<svg
  xmlns:svg="http://www.w3.org/2000/svg"
  xmlns="http://www.w3.org/2000/svg"
  xmlns:xlink="http://www.w3.org/1999/xlink"
  version="1.1"
  width="29.700220cm" height="21.000720cm" viewBox="0 0 116930 82680">
<title>SVG Picture created as hw-mic-preamp-B_SilkS.svg date 2021/04/04 18:43:07 </title>
  <desc>Picture generated by PCBNEW </desc>
<g style="fill:#000000; fill-opacity:1;stroke:#000000; stroke-opacity:1;
stroke-linecap:round; stroke-linejoin:round;"
 transform="translate(0 0) scale(1 1)">
</g>
<g style="fill:#000000; fill-opacity:0.0; 
stroke:#000000; stroke-width:-0.000393701; stroke-opacity:1; 
stroke-linecap:round; stroke-linejoin:round;">
</g>
<g style="fill:#000000; fill-opacity:0.0; 
stroke:#000000; stroke-width:47.2441; stroke-opacity:1; 
stroke-linecap:round; stroke-linejoin:round;">
<circle cx="249607" cy="179331" r="834.646" /> 
<path d="M249607 180149
L249607 178511
" />
<path d="M249591 180149
L249591 178511
" />
<path d="M249575 180149
L249575 178512
" />
<path d="M249559 180148
L249559 178512
" />
<path d="M249544 180147
L249544 178514
" />
<path d="M249528 180146
L249528 179661
" />
<path d="M249528 179000
L249528 178515
" />
<path d="M249512 180144
L249512 179661
" />
<path d="M249512 179000
L249512 178516
" />
<path d="M249496 180142
L249496 179661
" />
<path d="M249496 179000
L249496 178518
" />
<path d="M249481 180140
L249481 179661
" />
<path d="M249481 179000
L249481 178521
" />
<path d="M249465 180137
L249465 179661
" />
<path d="M249465 179000
L249465 178523
" />
<path d="M249449 180134
L249449 179661
" />
<path d="M249449 179000
L249449 178526
" />
<path d="M249433 180131
L249433 179661
" />
<path d="M249433 179000
L249433 178529
" />
<path d="M249418 180127
L249418 179661
" />
<path d="M249418 179000
L249418 178533
" />
<path d="M249402 180124
L249402 179661
" />
<path d="M249402 179000
L249402 178537
" />
<path d="M249386 180120
L249386 179661
" />
<path d="M249386 179000
L249386 178541
" />
<path d="M249370 180115
L249370 179661
" />
<path d="M249370 179000
L249370 178545
" />
<path d="M249355 180111
L249355 179661
" />
<path d="M249355 179000
L249355 178550
" />
<path d="M249339 180105
L249339 179661
" />
<path d="M249339 179000
L249339 178555
" />
<path d="M249323 180100
L249323 179661
" />
<path d="M249323 179000
L249323 178561
" />
<path d="M249307 180094
L249307 179661
" />
<path d="M249307 179000
L249307 178566
" />
<path d="M249291 180088
L249291 179661
" />
<path d="M249291 179000
L249291 178573
" />
<path d="M249276 180081
L249276 179661
" />
<path d="M249276 179000
L249276 178579
" />
<path d="M249260 180074
L249260 179661
" />
<path d="M249260 179000
L249260 178587
" />
<path d="M249244 180066
L249244 179661
" />
<path d="M249244 179000
L249244 178594
" />
<path d="M249228 180059
L249228 179661
" />
<path d="M249228 179000
L249228 178601
" />
<path d="M249213 180051
L249213 179661
" />
<path d="M249213 179000
L249213 178610
" />
<path d="M249197 180042
L249197 179661
" />
<path d="M249197 179000
L249197 178618
" />
<path d="M249181 180033
L249181 179661
" />
<path d="M249181 179000
L249181 178627
" />
<path d="M249165 180023
L249165 179661
" />
<path d="M249165 179000
L249165 178637
" />
<path d="M249150 180013
L249150 179661
" />
<path d="M249150 179000
L249150 178647
" />
<path d="M249134 180003
L249134 179661
" />
<path d="M249134 179000
L249134 178658
" />
<path d="M249118 179992
L249118 179661
" />
<path d="M249118 179000
L249118 178669
" />
<path d="M249102 179980
L249102 179661
" />
<path d="M249102 179000
L249102 178681
" />
<path d="M249087 179968
L249087 179661
" />
<path d="M249087 179000
L249087 178693
" />
<path d="M249071 179955
L249071 179661
" />
<path d="M249071 179000
L249071 178705
" />
<path d="M249055 179941
L249055 179661
" />
<path d="M249055 179000
L249055 178719
" />
<path d="M249039 179927
L249039 179661
" />
<path d="M249039 179000
L249039 178733
" />
<path d="M249024 179912
L249024 179661
" />
<path d="M249024 179000
L249024 178748
" />
<path d="M249008 179896
L249008 179661
" />
<path d="M249008 179000
L249008 178764
" />
<path d="M248992 179880
L248992 179661
" />
<path d="M248992 179000
L248992 178781
" />
<path d="M248976 179862
L248976 179661
" />
<path d="M248976 179000
L248976 178798
" />
<path d="M248961 179844
L248961 179661
" />
<path d="M248961 179000
L248961 178817
" />
<path d="M248945 179824
L248945 179661
" />
<path d="M248945 179000
L248945 178837
" />
<path d="M248929 179803
L248929 179661
" />
<path d="M248929 179000
L248929 178858
" />
<path d="M248913 179780
L248913 179661
" />
<path d="M248913 179000
L248913 178881
" />
<path d="M248898 179755
L248898 179661
" />
<path d="M248898 179000
L248898 178905
" />
<path d="M248882 179729
L248882 178931
" />
<path d="M248866 179700
L248866 178960
" />
<path d="M248850 179668
L248850 178992
" />
<path d="M248835 179633
L248835 179028
" />
<path d="M248819 179592
L248819 179069
" />
<path d="M248803 179542
L248803 179119
" />
<path d="M248787 179476
L248787 179185
" />
<path d="M250500 179801
L250343 179801
" />
<path d="M250422 179879
L250422 179722
" />
<circle cx="252166" cy="179331" r="834.646" /> 
<path d="M252166 178511
L252166 180149
" />
<path d="M252181 178511
L252181 180149
" />
<path d="M252197 178512
L252197 180149
" />
<path d="M252213 178512
L252213 180148
" />
<path d="M252229 178514
L252229 180147
" />
<path d="M252244 178515
L252244 179000
" />
<path d="M252244 179661
L252244 180146
" />
<path d="M252260 178516
L252260 179000
" />
<path d="M252260 179661
L252260 180144
" />
<path d="M252276 178518
L252276 179000
" />
<path d="M252276 179661
L252276 180142
" />
<path d="M252292 178521
L252292 179000
" />
<path d="M252292 179661
L252292 180140
" />
<path d="M252307 178523
L252307 179000
" />
<path d="M252307 179661
L252307 180137
" />
<path d="M252323 178526
L252323 179000
" />
<path d="M252323 179661
L252323 180134
" />
<path d="M252339 178529
L252339 179000
" />
<path d="M252339 179661
L252339 180131
" />
<path d="M252355 178533
L252355 179000
" />
<path d="M252355 179661
L252355 180127
" />
<path d="M252370 178537
L252370 179000
" />
<path d="M252370 179661
L252370 180124
" />
<path d="M252386 178541
L252386 179000
" />
<path d="M252386 179661
L252386 180120
" />
<path d="M252402 178545
L252402 179000
" />
<path d="M252402 179661
L252402 180115
" />
<path d="M252418 178550
L252418 179000
" />
<path d="M252418 179661
L252418 180111
" />
<path d="M252433 178555
L252433 179000
" />
<path d="M252433 179661
L252433 180105
" />
<path d="M252450 178561
L252450 179000
" />
<path d="M252450 179661
L252450 180100
" />
<path d="M252465 178566
L252465 179000
" />
<path d="M252465 179661
L252465 180094
" />
<path d="M252481 178573
L252481 179000
" />
<path d="M252481 179661
L252481 180088
" />
<path d="M252497 178579
L252497 179000
" />
<path d="M252497 179661
L252497 180081
" />
<path d="M252513 178587
L252513 179000
" />
<path d="M252513 179661
L252513 180074
" />
<path d="M252528 178594
L252528 179000
" />
<path d="M252528 179661
L252528 180066
" />
<path d="M252544 178601
L252544 179000
" />
<path d="M252544 179661
L252544 180059
" />
<path d="M252560 178610
L252560 179000
" />
<path d="M252560 179661
L252560 180051
" />
<path d="M252576 178618
L252576 179000
" />
<path d="M252576 179661
L252576 180042
" />
<path d="M252591 178627
L252591 179000
" />
<path d="M252591 179661
L252591 180033
" />
<path d="M252607 178637
L252607 179000
" />
<path d="M252607 179661
L252607 180023
" />
<path d="M252623 178647
L252623 179000
" />
<path d="M252623 179661
L252623 180013
" />
<path d="M252639 178658
L252639 179000
" />
<path d="M252639 179661
L252639 180003
" />
<path d="M252654 178669
L252654 179000
" />
<path d="M252654 179661
L252654 179992
" />
<path d="M252670 178681
L252670 179000
" />
<path d="M252670 179661
L252670 179980
" />
<path d="M252686 178693
L252686 179000
" />
<path d="M252686 179661
L252686 179968
" />
<path d="M252702 178705
L252702 179000
" />
<path d="M252702 179661
L252702 179955
" />
<path d="M252717 178719
L252717 179000
" />
<path d="M252717 179661
L252717 179941
" />
<path d="M252733 178733
L252733 179000
" />
<path d="M252733 179661
L252733 179927
" />
<path d="M252749 178748
L252749 179000
" />
<path d="M252749 179661
L252749 179912
" />
<path d="M252765 178764
L252765 179000
" />
<path d="M252765 179661
L252765 179896
" />
<path d="M252780 178781
L252780 179000
" />
<path d="M252780 179661
L252780 179880
" />
<path d="M252796 178798
L252796 179000
" />
<path d="M252796 179661
L252796 179862
" />
<path d="M252812 178817
L252812 179000
" />
<path d="M252812 179661
L252812 179844
" />
<path d="M252828 178837
L252828 179000
" />
<path d="M252828 179661
L252828 179824
" />
<path d="M252843 178858
L252843 179000
" />
<path d="M252843 179661
L252843 179803
" />
<path d="M252859 178881
L252859 179000
" />
<path d="M252859 179661
L252859 179780
" />
<path d="M252875 178905
L252875 179000
" />
<path d="M252875 179661
L252875 179755
" />
<path d="M252891 178931
L252891 179729
" />
<path d="M252906 178960
L252906 179700
" />
<path d="M252922 178992
L252922 179668
" />
<path d="M252938 179028
L252938 179633
" />
<path d="M252954 179069
L252954 179592
" />
<path d="M252969 179119
L252969 179542
" />
<path d="M252985 179185
L252985 179476
" />
<path d="M251272 178860
L251430 178860
" />
<path d="M251351 178781
L251351 178938
" />
<path d="M261485 178413
L262008 178413
" />
<path d="M261485 178937
L261485 178413
" />
<path d="M261485 179437
L262532 179437
" />
<path d="M262532 179437
L262532 180460
" />
<path d="M261485 179437
L261485 180460
" />
<path d="M261485 180460
L262532 180460
" />
<path d="M246695 180342
L246853 180342
" />
<path d="M246774 180421
L246774 180263
" />
<path d="M247099 178708
L247390 178708
" />
<path d="M247033 178724
L247456 178724
" />
<path d="M246983 178739
L247506 178739
" />
<path d="M246942 178755
L247547 178755
" />
<path d="M246906 178771
L247583 178771
" />
<path d="M246874 178787
L247615 178787
" />
<path d="M246846 178802
L247643 178802
" />
<path d="M247575 178818
L247670 178818
" />
<path d="M246819 178818
L246914 178818
" />
<path d="M247575 178834
L247694 178834
" />
<path d="M246795 178834
L246914 178834
" />
<path d="M247575 178850
L247717 178850
" />
<path d="M246772 178850
L246914 178850
" />
<path d="M247575 178865
L247738 178865
" />
<path d="M246751 178865
L246914 178865
" />
<path d="M247575 178881
L247758 178881
" />
<path d="M246731 178881
L246914 178881
" />
<path d="M247575 178897
L247776 178897
" />
<path d="M246713 178897
L246914 178897
" />
<path d="M247575 178912
L247794 178912
" />
<path d="M246695 178912
L246914 178912
" />
<path d="M247575 178928
L247811 178928
" />
<path d="M246678 178928
L246914 178928
" />
<path d="M247575 178944
L247826 178944
" />
<path d="M246663 178944
L246914 178944
" />
<path d="M247575 178960
L247841 178960
" />
<path d="M246648 178960
L246914 178960
" />
<path d="M247575 178975
L247855 178975
" />
<path d="M246633 178975
L246914 178975
" />
<path d="M247575 178991
L247869 178991
" />
<path d="M246620 178991
L246914 178991
" />
<path d="M247575 179007
L247882 179007
" />
<path d="M246607 179007
L246914 179007
" />
<path d="M247575 179023
L247894 179023
" />
<path d="M246595 179023
L246914 179023
" />
<path d="M247575 179038
L247906 179038
" />
<path d="M246583 179038
L246914 179038
" />
<path d="M247575 179054
L247917 179054
" />
<path d="M246572 179054
L246914 179054
" />
<path d="M247575 179070
L247928 179070
" />
<path d="M246561 179070
L246914 179070
" />
<path d="M247575 179086
L247937 179086
" />
<path d="M246552 179086
L246914 179086
" />
<path d="M247575 179101
L247947 179101
" />
<path d="M246542 179101
L246914 179101
" />
<path d="M247575 179117
L247956 179117
" />
<path d="M246533 179117
L246914 179117
" />
<path d="M247575 179133
L247965 179133
" />
<path d="M246524 179133
L246914 179133
" />
<path d="M247575 179149
L247973 179149
" />
<path d="M246516 179149
L246914 179149
" />
<path d="M247575 179164
L247981 179164
" />
<path d="M246508 179164
L246914 179164
" />
<path d="M247575 179180
L247988 179180
" />
<path d="M246501 179180
L246914 179180
" />
<path d="M247575 179196
L247995 179196
" />
<path d="M246494 179196
L246914 179196
" />
<path d="M247575 179212
L248002 179212
" />
<path d="M246487 179212
L246914 179212
" />
<path d="M247575 179227
L248008 179227
" />
<path d="M246481 179227
L246914 179227
" />
<path d="M247575 179243
L248014 179243
" />
<path d="M246475 179243
L246914 179243
" />
<path d="M247575 179259
L248019 179259
" />
<path d="M246470 179259
L246914 179259
" />
<path d="M247575 179275
L248025 179275
" />
<path d="M246464 179275
L246914 179275
" />
<path d="M247575 179291
L248030 179291
" />
<path d="M246459 179291
L246914 179291
" />
<path d="M247575 179307
L248034 179307
" />
<path d="M246455 179307
L246914 179307
" />
<path d="M247575 179322
L248038 179322
" />
<path d="M246451 179322
L246914 179322
" />
<path d="M247575 179338
L248042 179338
" />
<path d="M246447 179338
L246914 179338
" />
<path d="M247575 179354
L248045 179354
" />
<path d="M246444 179354
L246914 179354
" />
<path d="M247575 179370
L248048 179370
" />
<path d="M246441 179370
L246914 179370
" />
<path d="M247575 179385
L248052 179385
" />
<path d="M246437 179385
L246914 179385
" />
<path d="M247575 179401
L248054 179401
" />
<path d="M246435 179401
L246914 179401
" />
<path d="M247575 179417
L248056 179417
" />
<path d="M246433 179417
L246914 179417
" />
<path d="M247575 179433
L248058 179433
" />
<path d="M246431 179433
L246914 179433
" />
<path d="M247575 179448
L248060 179448
" />
<path d="M246429 179448
L246914 179448
" />
<path d="M246428 179464
L248061 179464
" />
<path d="M246427 179480
L248062 179480
" />
<path d="M246426 179496
L248063 179496
" />
<path d="M246426 179511
L248063 179511
" />
<path d="M246426 179527
L248063 179527
" />
<circle cx="247245" cy="179528" r="834.646" /> 
</g>
<g style="fill:#000000; fill-opacity:0.0; 
stroke:#000000; stroke-width:59.0551; stroke-opacity:1; 
stroke-linecap:round; stroke-linejoin:round;">
<text x="249607" y="180807"
transform="scale(-1 1) translate(-499214.330709 0)"
textLength="691.882" font-size="524.934" lengthAdjust="spacingAndGlyphs"
text-anchor="middle" opacity="0">C5</text>
<path d="M249541 180750
L249522 180769
L249466 180788
L249429 180788
L249372 180769
L249335 180732
L249316 180694
L249297 180619
L249297 180563
L249316 180488
L249335 180450
L249372 180413
L249429 180394
L249466 180394
L249522 180413
L249541 180432
" />
<path d="M249897 180394
L249710 180394
L249691 180582
L249710 180563
L249747 180544
L249841 180544
L249879 180563
L249897 180582
L249916 180619
L249916 180713
L249897 180750
L249879 180769
L249841 180788
L249747 180788
L249710 180769
L249691 180750
" />
<text x="252166" y="178248"
transform="scale(-1 1) translate(-504332.440945 0)"
textLength="691.882" font-size="524.934" lengthAdjust="spacingAndGlyphs"
text-anchor="middle" opacity="0">C2</text>
<path d="M252100 178191
L252081 178210
L252025 178229
L251988 178229
L251931 178210
L251894 178173
L251875 178135
L251856 178060
L251856 178004
L251875 177929
L251894 177891
L251931 177854
L251988 177835
L252025 177835
L252081 177854
L252100 177873
" />
<path d="M252250 177873
L252269 177854
L252306 177835
L252400 177835
L252438 177854
L252456 177873
L252475 177910
L252475 177948
L252456 178004
L252231 178229
L252475 178229
" />
<text x="262009" y="178217"
transform="scale(-1 1) translate(-524017.480315 0)"
textLength="1141.83" font-size="524.934" lengthAdjust="spacingAndGlyphs"
text-anchor="middle" opacity="0">MK1</text>
<path d="M261493 178197
L261493 177804
L261624 178085
L261755 177804
L261755 178197
" />
<path d="M261943 178197
L261943 177804
" />
<path d="M262168 178197
L261999 177972
" />
<path d="M262168 177804
L261943 178029
" />
<path d="M262543 178197
L262318 178197
" />
<path d="M262430 178197
L262430 177804
L262393 177860
L262355 177897
L262318 177916
" />
<g transform="rotate(-90 245965 179528)">
<text x="245965" y="179724"
transform="scale(-1 1) translate(-491930.866142 0)"
textLength="691.882" font-size="524.934" lengthAdjust="spacingAndGlyphs"
text-anchor="middle" opacity="0">C6</text>
</g>
<path d="M245824 179461
L245806 179443
L245787 179386
L245787 179349
L245806 179293
L245843 179255
L245881 179236
L245956 179218
L246012 179218
L246087 179236
L246124 179255
L246162 179293
L246181 179349
L246181 179386
L246162 179443
L246143 179461
" />
<path d="M246181 179799
L246181 179724
L246162 179686
L246143 179668
L246087 179630
L246012 179611
L245862 179611
L245824 179630
L245806 179649
L245787 179686
L245787 179761
L245806 179799
L245824 179818
L245862 179836
L245956 179836
L245993 179818
L246012 179799
L246031 179761
L246031 179686
L246012 179649
L245993 179630
L245956 179611
" />
<g >
</g>
</g> 
</svg>
